<?xml version="1.0" encoding="utf-8"?>
<!-- Generator: Adobe Illustrator 24.2.0, SVG Export Plug-In . SVG Version: 6.00 Build 0)  -->
<svg version="1.1" id="Capa_1" xmlns="http://www.w3.org/2000/svg" xmlns:xlink="http://www.w3.org/1999/xlink" x="0px" y="0px"
	 viewBox="0 0 73.5 73.5" style="enable-background:new 0 0 73.5 73.5;" xml:space="preserve">
<style type="text/css">
	.st0{fill:#FFFFFF;}
</style>
<path class="st0" d="M57.6,20.6H15.9c-1.9,0-3.4,1.5-3.4,3.4c0,0,0,0,0,0v28.7c0,1.9,1.5,3.4,3.4,3.4h41.7c1.9,0,3.4-1.5,3.4-3.4V24
	C61,22.1,59.5,20.6,57.6,20.6z M14.9,27c0.4,0,0.8-0.4,0.8-0.8H19c-0.1,0.4,0.2,0.9,0.7,0.9c0.4,0.1,0.9-0.2,0.9-0.7
	c0-0.1,0-0.1,0-0.2v0h3.2c-0.1,0.4,0.2,0.9,0.7,0.9c0.4,0.1,0.9-0.2,0.9-0.7c0-0.1,0-0.1,0-0.2v0h3.2c-0.1,0.4,0.2,0.9,0.7,0.9
	c0.4,0.1,0.9-0.2,0.9-0.7c0-0.1,0-0.1,0-0.2v0h3.2c-0.1,0.4,0.2,0.9,0.7,0.9c0.4,0.1,0.9-0.2,0.9-0.7c0-0.1,0-0.1,0-0.2 M35.2,26.2
	h3.2c0,0.4,0.3,0.8,0.8,0.8c0,0,0,0,0,0c0.4,0,0.8-0.3,0.8-0.8v0h3.2c0,0.4,0.3,0.8,0.8,0.8s0.8-0.3,0.8-0.8l0,0v0h3.2
	c0,0.4,0.3,0.8,0.8,0.8s0.8-0.3,0.8-0.8v0H53c0,0.4,0.3,0.8,0.8,0.8s0.8-0.3,0.8-0.8v0h3.2c0,0.4,0.3,0.8,0.8,0.8s0.8-0.3,0.8-0.8
	l0,0v4.8c0-0.5-0.3-0.9-0.8-0.9s-0.9,0.3-0.9,0.8l0,0v0h-3.2c0-0.4-0.3-0.8-0.8-0.8c-0.4,0-0.8,0.3-0.8,0.8c0,0,0,0,0,0v0h-3.2
	c0-0.4-0.3-0.8-0.8-0.8c-0.4,0-0.8,0.3-0.8,0.8c0,0,0,0,0,0v0h-3.2c0-0.4-0.3-0.8-0.8-0.8c-0.4,0-0.8,0.3-0.8,0.8c0,0,0,0,0,0v0H40
	c0-0.4-0.3-0.8-0.8-0.8c-0.4,0-0.8,0.3-0.8,0.8c0,0,0,0,0,0v0h-3.3c0.1-0.4-0.2-0.9-0.7-0.9c-0.4-0.1-0.9,0.2-0.9,0.7
	c0,0.1,0,0.1,0,0.2v0h-3.2c0.1-0.4-0.2-0.9-0.7-0.9c-0.4-0.1-0.9,0.2-0.9,0.7c0,0.1,0,0.1,0,0.2v0h-3.2c0.1-0.4-0.2-0.9-0.7-0.9
	c-0.4-0.1-0.9,0.2-0.9,0.7c0,0.1,0,0.1,0,0.2v0h-3.2c0.1-0.4-0.1-0.9-0.6-1c-0.4-0.1-0.9,0.1-1,0.6c0,0.1,0,0.3,0,0.4 M19,31h-3.3
	c0-0.4-0.3-0.8-0.8-0.8c0,0,0,0,0,0c-0.4,0-0.8,0.3-0.8,0.8v-4.8c0,0.4,0.3,0.8,0.8,0.8c0,0,0,0,0,0L19,31z M59.4,52.7
	c0,1-0.8,1.8-1.8,1.8H15.9c-1,0-1.8-0.8-1.8-1.8c0,0,0,0,0,0l0,0v-20h45.3V52.7z M14.1,24.6V24c0-1,0.8-1.8,1.8-1.8h0h41.7
	c1,0,1.8,0.8,1.8,1.8l0,0v0.6L14.1,24.6z"/>
<path class="st0" d="M18.1,37.6h7.3c0.4,0,0.8-0.4,0.8-0.8c0-0.4-0.4-0.8-0.8-0.8h-7.3c-0.4,0-0.8,0.3-0.8,0.8S17.6,37.5,18.1,37.6
	L18.1,37.6z"/>
<path class="st0" d="M28.7,37.6h7.3c0.4,0,0.8-0.3,0.8-0.8S36.4,36,36,35.9l0,0h-7.3c-0.4,0-0.8,0.3-0.8,0.8
	C27.8,37.2,28.2,37.5,28.7,37.6L28.7,37.6L28.7,37.6z"/>
<path class="st0" d="M18.1,41.6H19c0.4,0.1,0.9-0.2,0.9-0.7c0.1-0.4-0.2-0.9-0.7-0.9c-0.1,0-0.2,0-0.3,0h-0.9
	c-0.4,0-0.8,0.3-0.8,0.8S17.6,41.6,18.1,41.6L18.1,41.6z"/>
<path class="st0" d="M23.8,40h-1.6c-0.4,0-0.8,0.3-0.8,0.8s0.3,0.8,0.8,0.8h1.7c0.4,0,0.8-0.4,0.8-0.8C24.6,40.4,24.3,40,23.8,40z"
	/>
<path class="st0" d="M27,41.6h0.8c0.4,0,0.8-0.4,0.8-0.8c0-0.4-0.4-0.8-0.8-0.8H27c-0.4,0-0.8,0.4-0.8,0.8
	C26.2,41.2,26.6,41.6,27,41.6z"/>
<path class="st0" d="M32.7,40h-1.6c-0.4,0-0.8,0.4-0.8,0.8c0,0.4,0.4,0.8,0.8,0.8h1.6c0.4,0,0.8-0.4,0.8-0.8S33.1,40,32.7,40
	C32.7,40,32.7,40,32.7,40z"/>
<path class="st0" d="M35.4,40.2c-0.3,0.3-0.3,0.8,0,1.1c0,0,0,0,0,0c0.3,0.3,0.8,0.3,1.1,0c0.3-0.3,0.3-0.8,0-1.1
	C36.2,39.9,35.7,39.9,35.4,40.2C35.4,40.2,35.4,40.2,35.4,40.2z"/>
<circle class="st0" cx="31.9" cy="28.7" r="0.8"/>
<circle class="st0" cx="36.7" cy="28.7" r="0.8"/>
<circle class="st0" cx="27" cy="28.7" r="0.8"/>
<circle class="st0" cx="17.3" cy="28.7" r="0.8"/>
<circle class="st0" cx="22.2" cy="28.7" r="0.8"/>
<circle class="st0" cx="56.1" cy="28.7" r="0.8"/>
<circle class="st0" cx="51.3" cy="28.7" r="0.8"/>
<circle class="st0" cx="41.6" cy="28.7" r="0.8"/>
<circle class="st0" cx="46.4" cy="28.7" r="0.8"/>
<path class="st0" d="M45.6,52.1c1,0,2-0.3,2.8-0.8c2.7,1.6,6.2,0.7,7.8-2s0.7-6.2-2-7.8c-0.8-0.5-1.8-0.8-2.8-0.8h-0.1
	c-1,0-2,0.3-2.8,0.8c-0.9-0.5-1.8-0.8-2.8-0.8c-3.1,0-5.7,2.5-5.7,5.7C40,49.6,42.5,52.1,45.6,52.1L45.6,52.1z M47.2,46.4
	c0-1.1,0.4-2.1,1.2-2.9c1.6,1.5,1.6,4.1,0.1,5.7c0,0,0,0,0,0l-0.1,0.1C47.7,48.6,47.3,47.5,47.2,46.4z M55.3,46.4
	c0,2.2-1.7,4-3.9,4.1c-0.5,0-1.1-0.1-1.6-0.3c1.9-2.1,1.9-5.4,0-7.5c0.5-0.2,1-0.3,1.5-0.3C53.5,42.4,55.3,44.2,55.3,46.4L55.3,46.4
	z M45.6,42.4c0.5,0,1,0.1,1.5,0.3c-1.9,2.1-1.9,5.4,0,7.5c-0.5,0.2-1,0.3-1.5,0.3c-2.2,0-4-1.8-4-4C41.6,44.3,43.4,42.4,45.6,42.4z"
	/>
</svg>
