<svg id="Capa_1" data-name="Capa 1" xmlns="http://www.w3.org/2000/svg" viewBox="0 0 184.75 184.75"><defs><style>.cls-1{fill:#161e29;}.cls-2{fill:#fff;}</style></defs><path class="cls-1" d="M92.38,184.75a92.38,92.38,0,1,1,92.37-92.37,92.38,92.38,0,0,1-92.37,92.37"/><path class="cls-2" d="M121.84,75.33a1.86,1.86,0,1,0-1.79-1.85A1.8,1.8,0,0,0,121.84,75.33Z"/><path class="cls-2" d="M91.14,120.24A24.57,24.57,0,1,0,66.57,95.66,24.6,24.6,0,0,0,91.14,120.24Zm0-46A21.45,21.45,0,1,1,69.69,95.66,21.41,21.41,0,0,1,91.14,74.22Z"/><path class="cls-2" d="M91.14,108.22a12.56,12.56,0,0,0,0-25.11,1.56,1.56,0,0,0,0,3.12h0a9.44,9.44,0,1,1-9.23,9.43,1.56,1.56,0,0,0-3.12,0v0A12.47,12.47,0,0,0,91.14,108.22Z"/><path class="cls-2" d="M121.84,78.45a5,5,0,1,0-4.91-5A5,5,0,0,0,121.84,78.45Zm0-6.83a1.86,1.86,0,1,1-1.79,1.86A1.79,1.79,0,0,1,121.84,71.62Z"/><path class="cls-2" d="M126.6,129.81a8.84,8.84,0,0,0,8.73-8.87V70.39a8.84,8.84,0,0,0-8.73-8.87H72v-.06a5.79,5.79,0,0,0-5.71-5.8H58.91a5.79,5.79,0,0,0-5.72,5.8v.43A8.89,8.89,0,0,0,47,70.39v50.55a8.83,8.83,0,0,0,8.73,8.87ZM56.31,61.46a2.64,2.64,0,0,1,2.6-2.68h7.35a2.63,2.63,0,0,1,2.59,2.68v.06H56.31Zm-6.24,59.48V70.39a5.73,5.73,0,0,1,4.67-5.67,1.61,1.61,0,0,0,.44-.06l.5,0H70.15a1.46,1.46,0,0,0,.51,0H126.6a5.69,5.69,0,0,1,5.61,5.75v50.55a5.69,5.69,0,0,1-5.61,5.75H55.68A5.69,5.69,0,0,1,50.07,120.94Z"/><path class="cls-2" d="M117.83,122.94h5.39a11.58,11.58,0,0,0,2-.13,3.47,3.47,0,0,0,1.84-.92c1-1.06,1-2.37,1-4V106.76a1.55,1.55,0,0,0-1.53-1.58h0a1.56,1.56,0,0,0-1.54,1.58v11.11a8.92,8.92,0,0,1-.16,1.83l-.16,0a9.13,9.13,0,0,1-1.44.08h-5.35a1.56,1.56,0,0,0,0,3.12Z"/></svg>