<svg id="Capa_1" data-name="Capa 1" xmlns="http://www.w3.org/2000/svg" viewBox="0 0 88.38 74.15"><defs><style>.cls-1{fill:#fff;}</style></defs><path class="cls-1" d="M74.89,19.67a1.86,1.86,0,1,0-1.79-1.86A1.8,1.8,0,0,0,74.89,19.67Z"/><path class="cls-1" d="M44.19,64.57A24.57,24.57,0,1,0,19.61,40,24.59,24.59,0,0,0,44.19,64.57Zm0-46A21.45,21.45,0,1,1,22.73,40,21.42,21.42,0,0,1,44.19,18.55Z"/><path class="cls-1" d="M44.19,52.56a12.56,12.56,0,0,0,0-25.11,1.56,1.56,0,0,0,0,3.11h0A9.44,9.44,0,1,1,35,40a1.56,1.56,0,0,0-3.12,0v0A12.48,12.48,0,0,0,44.19,52.56Z"/><path class="cls-1" d="M74.89,22.79a5,5,0,1,0-4.91-5A5,5,0,0,0,74.89,22.79Zm0-6.84a1.86,1.86,0,1,1-1.79,1.86A1.8,1.8,0,0,1,74.89,16Z"/><path class="cls-1" d="M79.64,74.15a8.84,8.84,0,0,0,8.74-8.87V14.73a8.84,8.84,0,0,0-8.74-8.87H25V5.79A5.77,5.77,0,0,0,19.3,0H12A5.79,5.79,0,0,0,6.24,5.79v.44A8.89,8.89,0,0,0,0,14.73V65.28a8.83,8.83,0,0,0,8.73,8.87ZM9.36,5.79A2.64,2.64,0,0,1,12,3.12H19.3a2.62,2.62,0,0,1,2.59,2.67v.07H9.36ZM3.12,65.28V14.73A5.73,5.73,0,0,1,7.79,9.06,1.54,1.54,0,0,0,8.22,9a4.35,4.35,0,0,1,.51,0H23.2a2.09,2.09,0,0,0,.5,0H79.64a5.69,5.69,0,0,1,5.62,5.75V65.28A5.69,5.69,0,0,1,79.64,71H8.73A5.68,5.68,0,0,1,3.12,65.28Z"/><path class="cls-1" d="M70.87,67.28h5.39a10.68,10.68,0,0,0,2-.14,3.42,3.42,0,0,0,1.83-.91c1-1.07,1-2.38,1-4V51.09a1.56,1.56,0,0,0-1.54-1.58h0A1.56,1.56,0,0,0,78,51.09V62.21A8.92,8.92,0,0,1,77.87,64l-.17,0a9,9,0,0,1-1.44.08H70.92a1.56,1.56,0,1,0,0,3.12Z"/></svg>