<svg id="Capa_1" data-name="Capa 1" xmlns="http://www.w3.org/2000/svg" viewBox="0 0 55.14 58.94"><path d="M52.33,16.46H31.21L35.61,13a12.06,12.06,0,0,0,2.25-2.32,5.9,5.9,0,0,0-.68-8.32h0l-.3-.24a6,6,0,0,0-6.44-.64,7.36,7.36,0,0,0-3,2.72,7.54,7.54,0,0,0-3-2.74A6,6,0,0,0,18,2.12a5.89,5.89,0,0,0-1.24,8.24h0a3.92,3.92,0,0,0,.25.32A12,12,0,0,0,19.33,13l4.4,3.49H2.61A1.32,1.32,0,0,0,1.3,17.77v7.85a1.31,1.31,0,0,0,1.31,1.31H5.22V57a1.31,1.31,0,0,0,1.31,1.31H48.41A1.31,1.31,0,0,0,49.72,57h0V26.93h2.61a1.31,1.31,0,0,0,1.31-1.31h0V17.77a1.31,1.31,0,0,0-1.31-1.31ZM24.85,25.62V19.08h5.24V55.72H24.85ZM31.59,3.76a3.55,3.55,0,0,1,1.6-.38,3.28,3.28,0,0,1,2.09.76c1.63,1.23,1.8,3.1.45,5A8.74,8.74,0,0,1,34,10.9l-5.23,4.15V8.72A5.45,5.45,0,0,1,31.59,3.76ZM19.21,9.11c-1.31-1.87-1.17-3.74.45-5a3.34,3.34,0,0,1,3.69-.38,5.47,5.47,0,0,1,2.81,5v6.33L20.93,10.9A9.12,9.12,0,0,1,19.21,9.11Zm-15.29,10H22.24v5.23H3.92ZM7.84,27h14.4V55.72H7.84ZM47.1,55.72H32.7V26.93H47.1ZM51,24.31H32.7V19.08H51Z" style="fill:#d3a768"/></svg>