<svg id="Capa_1" data-name="Capa 1" xmlns="http://www.w3.org/2000/svg" viewBox="0 0 429.74 429.74"><defs><style>.cls-1{fill:none;stroke:#161e29;stroke-miterlimit:10;stroke-width:17.01px;}.cls-2{fill:#fff;}.cls-3{fill:#f0d295;}.cls-4{fill:#090808;}</style></defs><path class="cls-1" d="M214.87,421.24c-114,0-206.37-92.39-206.37-206.37S100.9,8.5,214.87,8.5s206.37,92.4,206.37,206.37S328.85,421.24,214.87,421.24"/><path class="cls-2" d="M304.75,331.24H132.56a20.43,20.43,0,0,1-20.43-20.42V91.93h0l17.22,17.22,17.22-17.22,17.21,17.22L181,91.92l17.22,17.22,17.22-17.22,17.22,17.22,17.22-17.22,17.22,17.22,17.22-17.22V211.58"/><path class="cls-3" d="M304.76,331.24h0a20.42,20.42,0,0,1-20.43-20.42V211.58h40.85v99.24A20.42,20.42,0,0,1,304.76,331.24Z"/><path class="cls-4" d="M325.18,206.72h-36V91.92a4.86,4.86,0,0,0-8.3-3.44L267.1,102.26,253.32,88.48a4.86,4.86,0,0,0-6.88,0l-13.78,13.78L218.88,88.48a4.86,4.86,0,0,0-6.88,0l-13.78,13.78L184.44,88.48a4.86,4.86,0,0,0-6.88,0l-13.78,13.78L150,88.48a4.86,4.86,0,0,0-6.88,0l-13.78,13.78L115.57,88.48a4.86,4.86,0,0,0-8.3,3.57V310.82a25.33,25.33,0,0,0,25.29,25.29h172.2a25.33,25.33,0,0,0,25.29-25.29V211.58A4.87,4.87,0,0,0,325.18,206.72ZM117,310.82V103.67l8.91,8.91a4.86,4.86,0,0,0,6.88,0L146.57,98.8l13.78,13.78a4.86,4.86,0,0,0,6.88,0L181,98.8l13.78,13.78a4.86,4.86,0,0,0,6.88,0L215.44,98.8l13.78,13.78a4.86,4.86,0,0,0,6.88,0L249.88,98.8l13.78,13.78a4.86,4.86,0,0,0,6.88,0l8.92-8.92V310.82a25.2,25.2,0,0,0,5.38,15.56H132.56A15.58,15.58,0,0,1,117,310.82Zm203.32,0a15.58,15.58,0,0,1-15.56,15.56h0a15.58,15.58,0,0,1-15.57-15.56V216.45h31.13v94.37Z"/><path class="cls-4" d="M237.62,174.06h9.48a4.87,4.87,0,0,0,0-9.73h-9.48a4.87,4.87,0,1,0,0,9.73Z"/><path class="cls-4" d="M158.84,164.33h-9.48a4.87,4.87,0,1,0,0,9.73h9.48a4.87,4.87,0,0,0,0-9.73Z"/><path class="cls-4" d="M249.56,218.4H172.5a4.86,4.86,0,1,0,0,9.72h77.06a4.86,4.86,0,1,0,0-9.72Z"/><path class="cls-4" d="M146.89,218.4a4.87,4.87,0,1,0,3.44,1.42A4.9,4.9,0,0,0,146.89,218.4Z"/><path class="cls-4" d="M249.56,250.5H172.5a4.87,4.87,0,1,0,0,9.73h77.06a4.87,4.87,0,0,0,0-9.73Z"/><path class="cls-4" d="M146.89,250.5a4.87,4.87,0,1,0,3.44,1.42A4.9,4.9,0,0,0,146.89,250.5Z"/><path class="cls-4" d="M249.56,282.6H172.5a4.87,4.87,0,1,0,0,9.73h77.06a4.87,4.87,0,0,0,0-9.73Z"/><path class="cls-4" d="M146.89,282.6a4.88,4.88,0,1,0,3.44,1.43A4.87,4.87,0,0,0,146.89,282.6Z"/><path class="cls-4" d="M223.81,191.33a2.18,2.18,0,0,1-1.51,2.07,30.39,30.39,0,0,1-9.17,1.57q-12.33,0-19.45-6.08a27.61,27.61,0,0,1-8.83-14.75,2.16,2.16,0,0,0-2.1-1.65h-4.69a2.17,2.17,0,0,1-2.17-2.17v-1.57a2.17,2.17,0,0,1,2.17-2.17h3.31a2.17,2.17,0,0,0,2.17-2.26c0-.23,0-.43,0-.6v-.26a2.17,2.17,0,0,0-2.17-2.17h-3.3a2.17,2.17,0,0,1-2.17-2.17v-1.57a2.17,2.17,0,0,1,2.17-2.17h4.49a2.17,2.17,0,0,0,2.11-1.68,28.26,28.26,0,0,1,8.72-15.16q7.08-6.24,19.14-6.25a28.92,28.92,0,0,1,12.8,2.79,2.18,2.18,0,0,1,1.11,2.73l-1.08,2.85a2.18,2.18,0,0,1-2.9,1.22,24.11,24.11,0,0,0-9.58-1.86q-8.16,0-13.11,4.12a19.51,19.51,0,0,0-5.78,8.31,2.16,2.16,0,0,0,2,2.93h22.21a2.17,2.17,0,0,1,2.06,2.84l-.5,1.57a2.17,2.17,0,0,1-2.07,1.5H194.29a2.17,2.17,0,0,0-2.17,2.17h0c0,.29,0,.64,0,1.06a2.17,2.17,0,0,0,2.17,2.06h20.47a2.17,2.17,0,0,1,2.07,2.81l-.48,1.57a2.17,2.17,0,0,1-2.07,1.53h-18a2.17,2.17,0,0,0-2,3,19.14,19.14,0,0,0,5.73,7.82q4.91,4,12.72,4a33.33,33.33,0,0,0,8.34-.92,2.16,2.16,0,0,1,2.69,2.1Z"/></svg>