<?xml version="1.0" encoding="utf-8"?>
<!-- Generator: Adobe Illustrator 24.1.2, SVG Export Plug-In . SVG Version: 6.00 Build 0)  -->
<svg version="1.1" id="Capa_1" xmlns="http://www.w3.org/2000/svg" xmlns:xlink="http://www.w3.org/1999/xlink" x="0px" y="0px"
	 viewBox="0 0 73.5 73.5" style="enable-background:new 0 0 73.5 73.5;" xml:space="preserve">
<style type="text/css">
	.st0{fill:#4B4B4B;}
	.st1{fill:url(#SVGID_1_);}
	.st2{fill:url(#SVGID_2_);}
	.st3{fill:#FFFFFF;}
</style>
<g>
	<path class="st0" d="M36.3,54.3c0.4,0.4,1.2,0.4,1.6,0l7.6-7.6c0.8-0.8,0.8-2.1,0-2.9c-0.8-0.8-2.1-0.8-2.9,0l-3.5,3.5V27.9
		c0-1.1-0.9-2-2-2c-1.1,0-2,0.9-2,2v19.4l-3.4-3.4c-0.8-0.8-2.1-0.8-2.9,0c-0.8,0.8-0.8,2.1,0,2.9L36.3,54.3z"/>
	<path class="st0" d="M17.5,3.3c-4.2,0-7.5,3.4-7.5,7.5v51.8c0,4.2,3.4,7.5,7.5,7.5h39.1c4.2,0,7.5-3.4,7.5-7.5V25.1L42.4,3.3H17.5z
		 M56.8,23.8H46.3c-1.5,0-2.6-1.2-2.6-2.6V10.7L56.8,23.8z M56.6,65.9H17.5c-1.8,0-3.2-1.5-3.2-3.2V10.9c0-1.8,1.5-3.2,3.2-3.2h21.9
		v13.5c0,3.8,3.1,6.9,6.9,6.9h13.5v34.5C59.9,64.4,58.4,65.9,56.6,65.9"/>
	<path class="st0" d="M49.3,56.1H24.8c-1.1,0-2,0.9-2,2c0,1.1,0.9,2,2,2h24.4c1.1,0,2-0.9,2-2C51.3,57,50.4,56.1,49.3,56.1"/>
</g>
</svg>
