<?xml version="1.0" encoding="utf-8"?>
<!-- Generator: Adobe Illustrator 24.1.2, SVG Export Plug-In . SVG Version: 6.00 Build 0)  -->
<svg version="1.1" id="Capa_1" xmlns="http://www.w3.org/2000/svg" xmlns:xlink="http://www.w3.org/1999/xlink" x="0px" y="0px"
	 viewBox="0 0 73.5 73.5" style="enable-background:new 0 0 73.5 73.5;" xml:space="preserve">
<style type="text/css">
	.st0{fill:#4B4B4B;}
	.st1{fill:url(#SVGID_1_);}
	.st2{fill:url(#SVGID_2_);}
	.st3{fill:#FFFFFF;}
</style>
<path class="st0" d="M69.7,33.6h-5.5c-0.2,0-0.3,0-0.5,0c-1.2-1.1-2.6-2-4.1-2.7c3.3-2.4,5.5-6.3,5.5-10.6c0-7.2-5.9-13-13-13
	s-13,5.9-13,13c0,3.5,1.4,6.6,3.6,8.9h-9.6c2.2-2.3,3.6-5.5,3.6-8.9c0-7.2-5.9-13-13-13s-13,5.9-13,13c0,4,1.8,7.6,4.7,10
	c-2,0.7-3.9,1.9-5.5,3.3c-0.2,0-0.3,0-0.5,0H3.8c-1.1,0-2.1,0.9-2.1,2.1v11c0,1.1,0.9,2.1,2.1,2.1h0.1v15.5c0,1.1,0.9,2.1,2.1,2.1
	h61.6c1.1,0,2.1-0.9,2.1-2.1V48.7h0.1c1.1,0,2.1-0.9,2.1-2.1v-11C71.8,34.5,70.9,33.6,69.7,33.6 M52.1,11.3c4.9,0,8.9,4,8.9,8.9
	c0,4.9-4,8.9-8.9,8.9c-4.9,0-8.9-4-8.9-8.9C43.2,15.3,47.2,11.3,52.1,11.3 M14.6,20.3c0-4.9,4-8.9,8.9-8.9s8.9,4,8.9,8.9
	c0,4.9-4,8.9-8.9,8.9S14.6,25.2,14.6,20.3 M5.8,44.6v-6.9h3.4c1.9,0,3.4,1.5,3.4,3.4c0,1.9-1.5,3.4-3.4,3.4H5.8z M34.7,62.2H16.8
	v-8.9c0-1.1-0.9-2.1-2.1-2.1s-2.1,0.9-2.1,2.1v8.9H8V48.7h1.2c4.2,0,7.5-3.4,7.5-7.5c0-2.3-1-4.4-2.7-5.8h0c2.1-1.4,4.6-2.1,7.2-2.1
	h19.6c-3.8,3.2-6.2,8-6.2,13.3V62.2z M65.5,62.2h-4.7v-8.9c0-1.1-0.9-2.1-2.1-2.1s-2.1,0.9-2.1,2.1v8.9H38.8V46.6
	c0-7.4,6-13.3,13.3-13.3c2.6,0,5.1,0.7,7.2,2.1c-1.6,1.4-2.7,3.4-2.7,5.7c0,4.2,3.4,7.5,7.5,7.5h1.2V62.2z M67.7,44.6h-3.4
	c-1.9,0-3.4-1.5-3.4-3.4s1.5-3.4,3.4-3.4h3.4V44.6z"/>
</svg>
