<?xml version="1.0" encoding="utf-8"?>
<!-- Generator: Adobe Illustrator 24.1.2, SVG Export Plug-In . SVG Version: 6.00 Build 0)  -->
<svg version="1.1" id="Capa_1" xmlns="http://www.w3.org/2000/svg" xmlns:xlink="http://www.w3.org/1999/xlink" x="0px" y="0px"
	 viewBox="0 0 73.5 73.5" style="enable-background:new 0 0 73.5 73.5;" xml:space="preserve">
<style type="text/css">
	.st0{fill:#4B4B4B;}
</style>
<path class="st0" d="M47.3,28.9c2.8-2.7,4.6-6.5,4.6-10.7C51.9,10,45.2,3.3,37,3.3S22.2,10,22.2,18.2c0,4.2,1.8,8,4.6,10.7
	c-6.9,1-12.1,7-12.1,14.1v28.1h44.9V43C59.5,35.8,54.2,29.9,47.3,28.9 M26.5,18.2c0-5.8,4.7-10.6,10.6-10.6s10.6,4.7,10.6,10.6
	c0,5.6-4.4,10.2-9.9,10.5h-1.4C30.8,28.3,26.5,23.8,26.5,18.2 M55.2,66.8h-5.5V49.6c0-1.2-1-2.1-2.1-2.1c-1.2,0-2.1,1-2.1,2.1v17.2
	H28.7V49.6c0-1.2-1-2.1-2.1-2.1c-1.2,0-2.1,1-2.1,2.1v17.2h-5.5V43c0-5.5,4.5-10,10-10h7.4c0.2,0,0.5,0,0.7,0c0.2,0,0.5,0,0.7,0h7.4
	c5.5,0,10,4.5,10,10V66.8z"/>
</svg>
