<svg id="Capa_1" data-name="Capa 1" xmlns="http://www.w3.org/2000/svg" xmlns:xlink="http://www.w3.org/1999/xlink" viewBox="0 0 424.07 424.07"><defs><style>.cls-1,.cls-13{fill:none;}.cls-2{clip-path:url(#clip-path);}.cls-3{fill:#469a41;}.cls-4{fill:#f1d692;}.cls-5{fill:#e9c57e;}.cls-6{fill:#f0d295;}.cls-7{fill:#090808;}.cls-8{fill:#cc71a5;}.cls-9{fill:#1b96b8;}.cls-10{fill:#3aa5d9;}.cls-11{fill:#dc9a55;}.cls-12{fill:#d37d30;}.cls-13{stroke:#161e29;stroke-miterlimit:10;stroke-width:11.34px;}</style><clipPath id="clip-path"><path class="cls-1" d="M212,418.41C98.06,418.41,5.67,326,5.67,212S98.06,5.67,212,5.67,418.41,98.06,418.41,212,326,418.41,212,418.41"/></clipPath></defs><g class="cls-2"><polygon class="cls-3" points="321.52 312.15 329.42 324.7 331.66 329.27 345.46 328.52 348.87 323.7 348.79 321.13 338.14 314.23 333.65 310.24 330.5 307.16 321.52 312.15"/><path class="cls-4" d="M246.47,320.8c17.52-8,57.55-10.92,70-10.92,9.75,0,14.44-6.64,18.65-13.85L348,279.72a32,32,0,0,1,16.26-5.11h0c5.84-.11,11.15,1.81,13.87,6.48L374,300.58l-28,37.44H251.75l-13.62-8.88C238.19,325.89,241.38,323.13,246.47,320.8Z"/><path class="cls-5" d="M246.47,320.8a520.39,520.39,0,0,0,68.72.41c37.76-2.29,49-38.59,49-46.6h0c5.84-.11,11.15,1.81,13.87,6.48L374,300.58l-28,37.44H251.75l-13.62-8.88C238.19,325.89,241.38,323.13,246.47,320.8Z"/><circle class="cls-6" cx="212.32" cy="130.14" r="21.22"/><rect class="cls-6" x="14.27" y="353.43" width="402.18" height="70.2"/><path class="cls-7" d="M212.32,157a26.89,26.89,0,1,0-26.89-26.89A26.93,26.93,0,0,0,212.32,157Zm0-42.43a15.54,15.54,0,1,1-15.53,15.54A15.56,15.56,0,0,1,212.32,114.6Z"/><path class="cls-7" d="M212.32,94.38A5.68,5.68,0,0,0,218,88.7V71.35a5.68,5.68,0,1,0-11.35,0V88.7A5.68,5.68,0,0,0,212.32,94.38Z"/><path class="cls-7" d="M206.65,171.58v17.35a5.68,5.68,0,1,0,11.35,0V171.58a5.68,5.68,0,1,0-11.35,0Z"/><path class="cls-7" d="M241.63,106.51a5.63,5.63,0,0,0,4-1.66l12.27-12.26a5.68,5.68,0,0,0-8-8L237.61,96.82a5.68,5.68,0,0,0,4,9.69Z"/><path class="cls-7" d="M179,155.43l-12.26,12.26a5.68,5.68,0,1,0,8,8L187,163.46a5.68,5.68,0,0,0-8-8Z"/><path class="cls-7" d="M248.09,130.14a5.68,5.68,0,0,0,5.68,5.68h17.34a5.68,5.68,0,1,0,0-11.36H253.77A5.68,5.68,0,0,0,248.09,130.14Z"/><path class="cls-7" d="M153.54,135.82h17.34a5.68,5.68,0,1,0,0-11.36H153.54a5.68,5.68,0,1,0,0,11.36Z"/><path class="cls-7" d="M237.61,155.43a5.69,5.69,0,0,0,0,8l12.27,12.26a5.68,5.68,0,0,0,8-8l-12.27-12.26A5.67,5.67,0,0,0,237.61,155.43Z"/><path class="cls-7" d="M179,104.85a5.68,5.68,0,0,0,8-8L174.77,84.56a5.68,5.68,0,1,0-8,8Z"/><path class="cls-7" d="M76.88,366.52a4.85,4.85,0,1,0-2,6A4.91,4.91,0,0,0,76.88,366.52Z"/><path class="cls-7" d="M91.4,374.1a4.84,4.84,0,1,0-2,6A4.89,4.89,0,0,0,91.4,374.1Z"/><path class="cls-4" d="M155.78,314.23,132,311.72,115.73,310c7,.39,10.78-21.53,23.24-21.53S148.27,312.76,155.78,314.23Z"/><path class="cls-4" d="M188.27,329.14,174.64,338H80.46l-28-37.44-4.14-19.49c2.73-4.67,8-6.59,13.88-6.48h0a32,32,0,0,1,16.26,5.11L91.25,296c4.21,7.21,8.91,13.85,18.66,13.85,12.46,0,52.5,2.89,70,10.92C185,323.13,188.2,325.89,188.27,329.14Z"/><path class="cls-5" d="M188.27,329.14,174.64,338H80.46l-28-37.44-4.14-19.49c2.73-4.67,8-6.59,13.88-6.48h0c0,8,11.28,44.31,49,46.6a520.51,520.51,0,0,0,68.73-.41C185,323.13,188.2,325.89,188.27,329.14Z"/><path class="cls-8" d="M109.9,309.88s-13.1,9.62-13.1,19.26L80.46,338l-5.4-17.6c12.51,0,23.26-14.93,23.26-14.93A16.53,16.53,0,0,0,109.9,309.88Z"/><rect class="cls-9" x="187.23" y="338.76" width="16.89" height="16.58"/><rect class="cls-9" x="87.84" y="338.79" width="16.89" height="16.56"/><polygon class="cls-10" points="213.55 329.14 213.55 343.59 73.13 343.59 18.41 263.2 30.66 255.18 81 329.14 213.55 329.14"/><path class="cls-5" d="M139,288.48c-4.65,0-6.51,17.44-7,23.24L115.73,310C122.78,310.4,126.51,288.48,139,288.48Z"/><ellipse class="cls-8" cx="84.63" cy="288.07" rx="8.73" ry="10.49" transform="translate(-115.58 64.32) rotate(-25.45)"/><path class="cls-11" d="M79.27,262.61H93.53V242c0-14.74-12.18-26.69-27.2-26.69h0c-15,0-27.2,11.95-27.2,26.69v20.62H53.4"/><path class="cls-12" d="M72.23,215.93A26.81,26.81,0,0,0,50.93,242v20.62H39.13V242c0-14.74,12.18-26.69,27.2-26.69h0A27.92,27.92,0,0,1,72.23,215.93Z"/><path class="cls-4" d="M85.71,238.05H47v10.4a19.38,19.38,0,0,0,38.76,0v-10.4"/><path class="cls-5" d="M71,266.92a20,20,0,0,1-4.68.56,19.21,19.21,0,0,1-19.38-19v-10.4H56.3v10.4A19.1,19.1,0,0,0,71,266.92Z"/><polygon class="cls-8" points="127.21 257.66 143.54 241.65 110.88 241.65 127.21 257.66"/><path class="cls-7" d="M213.55,346.52a3,3,0,0,0,3-2.93V329.14a3,3,0,0,0-3-2.93H192.38L195,318.3a2.93,2.93,0,0,0-1.91-3.7,3,3,0,0,0-3.77,1.89L187.5,322c-5-4.38-15.26-7.84-31.13-10.63h0c-1.39-.27-2.75-5.53-3.56-8.67-1.87-7.23-4.43-17.13-13.84-17.13-8.76,0-13.63,8.05-17.54,14.51-1.49,2.46-4.25,7-5.5,7h0c-2.34-.1-4.37-.14-6-.14-7.12,0-11-4.26-14.53-9.84a14.34,14.34,0,0,0,6.8,1.77,11.5,11.5,0,0,0,4.31-.8c8.3-3.37,10-15.46,10-25,0-2.73.67-4.65,2-5.7,1.71-1.35,4.44-1.25,5.68-1.05v3.23h-2.66a2.93,2.93,0,1,0,0,5.86h11.29a2.93,2.93,0,1,0,0-5.86h-2.66V258.87l15.46-15.15a2.91,2.91,0,0,0,.65-3.2,3,3,0,0,0-2.76-1.81H110.88a3,3,0,0,0-2.76,1.81,2.89,2.89,0,0,0,.64,3.2l15.46,15.15v1.54a13.34,13.34,0,0,0-9.38,2.35c-2.84,2.22-4.29,5.69-4.29,10.31,0,10.81-2.31,17.95-6.35,19.59-2.45,1-5.38-.08-7.58-1.79a14.75,14.75,0,0,0-1.2-7.37h0a14.74,14.74,0,0,0-6.72-7.24,11.12,11.12,0,0,0-9.47-.49,7.69,7.69,0,0,0-.91.45c-7-4-15.44-5.5-22.12-3.94a16.91,16.91,0,0,0-7.67,3.87L41.3,265.54h11a22.6,22.6,0,0,0,28,0H93.53a3,3,0,0,0,3-2.93V242a29.05,29.05,0,0,0-5.46-17,3,3,0,0,0-4.16-.72,2.9,2.9,0,0,0-.73,4.09A23.29,23.29,0,0,1,90.54,242v17.69h-5a21.55,21.55,0,0,0,3.16-11.23v-10.4a3,3,0,0,0-3-2.93H47a3,3,0,0,0-3,2.93v10.4a21.54,21.54,0,0,0,3.15,11.23h-5V242a24,24,0,0,1,24.21-23.76,24.53,24.53,0,0,1,11.71,3,3,3,0,0,0,4.06-1.14,2.91,2.91,0,0,0-1.16-4,30.65,30.65,0,0,0-14.61-3.69c-16.64,0-30.18,13.29-30.18,29.62v16l-3-4.42a3,3,0,0,0-4.14-.81l-12.24,8a2.9,2.9,0,0,0-1.27,1.86,2.85,2.85,0,0,0,.44,2.2l15.16,22.28a22.4,22.4,0,0,0-2,10c0,17.64-4.46,22-6.13,23.66a2.88,2.88,0,0,0,0,4.14,3,3,0,0,0,4.22,0c2.36-2.31,7.88-7.73,7.88-27.8a23.17,23.17,0,0,1,.29-3.79l35.31,51.87a3,3,0,0,0,2.48,1.3H84.85v5.89H18.41a2.94,2.94,0,1,0,0,5.87H213.54a2.94,2.94,0,1,0,0-5.87h-6.43v-5.89ZM136.32,244.58l-9.11,8.94-9.12-8.94ZM82.72,241v7.46a16.39,16.39,0,0,1-32.78,0V241Zm43.85,62.06c3.3-5.45,7-11.63,12.4-11.63,4.43,0,6.07,5,8.05,12.7.54,2.11,1.08,4.18,1.75,6-8.68-1.25-17.59-2.11-25-2.62C124.69,306.15,125.62,304.61,126.57,303.05Zm-10.93,9.89a331,331,0,0,1,38.86,4c9.58,1.65,17.16,3.59,22.52,5.77a25.08,25.08,0,0,1,6.3,3.46h-83c1.71-5.4,7.5-10.91,10.64-13.4,1.34,0,2.9.06,4.64.13h.07ZM75.56,295.57A13.21,13.21,0,0,0,86,301.19a10.49,10.49,0,0,0,4.07-.82l.3-.14a39.12,39.12,0,0,0,4.06,5.47c-3.53,4.17-10.57,10.83-17.8,11.69L65.82,301.56Zm23.28,14a18.91,18.91,0,0,0,4.39,2.17c-3.54,3.48-7.91,8.74-9.1,14.45H82.6l-2.42-3.54C88.65,320.45,95.62,313.37,98.84,309.59ZM81.6,281.16a4.26,4.26,0,0,1,1.74-.35,5.77,5.77,0,0,1,2.63.67,8.72,8.72,0,0,1,4,4.35h0c1.65,3.74.61,7.94-2.26,9.15s-6.69-.92-8.33-4.67S78.73,282.37,81.6,281.16Zm-24-3.18c4.79-1.11,11.08-.06,16.46,2.63a13.5,13.5,0,0,0-1,9.6L62.5,296.68l-6.38-9.37c.77.26,1.55.54,2.36.85a3,3,0,0,0,3.87-1.66,2.92,2.92,0,0,0-1.69-3.8,56.75,56.75,0,0,0-7.87-2.43A11.1,11.1,0,0,1,57.58,278ZM29.83,259.25l13.72,20.14a16.17,16.17,0,0,0-7.93,2.5l-.6.44L22.56,264Zm8.53,28a5.91,5.91,0,0,1,.63-.49c2-1.34,4.93-1.8,8.58-1.43l30.95,45.46A3,3,0,0,0,81,332.08H210.56v8.58H169.2a2.93,2.93,0,1,0,0,5.86h15.05v5.89H107.71v-5.89h49.54a2.93,2.93,0,1,0,0-5.86H74.73Zm52.46,65.18v-5.89h10.92v5.89Zm110.32,0H190.22v-5.89h10.92Z"/><path class="cls-7" d="M72.57,253.37a3,3,0,0,0,3-2.93v-3.85a3,3,0,0,0-6,0v3.85A3,3,0,0,0,72.57,253.37Z"/><path class="cls-7" d="M60.22,253.37a3,3,0,0,0,3-2.93v-3.85a3,3,0,0,0-6,0v3.85A3,3,0,0,0,60.22,253.37Z"/><path class="cls-4" d="M288.43,288.48c12.46,0,16.19,21.92,23.23,21.53l-16.23,1.71-23.82,2.51C279.12,312.76,276,288.48,288.43,288.48Z"/><path class="cls-3" d="M330.24,305.66s10.76,14.92,23.27,14.92l-5.4,17.61-16.35-8.88c0-9.64-13.1-19.27-13.1-19.27A16.49,16.49,0,0,0,330.24,305.66Z"/><rect class="cls-9" x="223.27" y="338.76" width="16.89" height="16.58"/><rect class="cls-9" x="322.67" y="338.79" width="16.89" height="16.56"/><path class="cls-5" d="M313.66,310l-16.23,1.71c-.49-5.8-2.35-23.24-7-23.24C302.89,288.48,306.62,310.4,313.66,310Z"/><path class="cls-7" d="M231.56,373.45a4.85,4.85,0,1,1,4.77-4A4.88,4.88,0,0,1,231.56,373.45Z"/><path class="cls-7" d="M212.26,382.2a4.84,4.84,0,1,1,4.79-4.13A4.88,4.88,0,0,1,212.26,382.2Z"/><path class="cls-7" d="M194.3,377.36a4.84,4.84,0,1,1,4.72-3.78A4.89,4.89,0,0,1,194.3,377.36Z"/><path class="cls-7" d="M306.09,377.7a4.84,4.84,0,1,1,4.8-4.24A4.88,4.88,0,0,1,306.09,377.7Z"/><path class="cls-1" d="M336.26,326.21H347.8l2.41-3.54c-8.47-2.22-15.43-9.3-18.66-13.08a18.71,18.71,0,0,1-4.39,2.17C330.71,315.24,335.07,320.5,336.26,326.21Z"/><path class="cls-1" d="M395.37,282.33,407.84,264l-7.27-4.76-13.72,20.14a16.16,16.16,0,0,1,7.92,2.5C395,282,395.18,282.18,395.37,282.33Z"/><polygon class="cls-1" points="294.07 244.58 303.19 253.52 312.31 244.58 294.07 244.58"/><rect class="cls-1" x="328.66" y="346.52" width="10.92" height="5.89"/><path class="cls-1" d="M303.83,303.05c-3.3-5.45-7-11.63-12.4-11.63-4.44,0-6.07,5-8.05,12.7-.55,2.11-1.08,4.18-1.75,6,8.68-1.25,17.58-2.11,25-2.62C305.7,306.15,304.77,304.61,303.83,303.05Z"/><rect class="cls-1" x="229.26" y="346.52" width="10.92" height="5.89"/><path class="cls-1" d="M319.47,312.81c-1.34,0-2.9.06-4.64.13h-.07a330.75,330.75,0,0,0-38.86,4c-9.59,1.65-17.16,3.59-22.52,5.77a25,25,0,0,0-6.31,3.46h83C328.39,320.81,322.6,315.3,319.47,312.81Z"/><path class="cls-1" d="M336.26,326.21H347.8l2.41-3.54c-8.47-2.22-15.43-9.3-18.66-13.08a18.71,18.71,0,0,1-4.39,2.17C330.71,315.24,335.07,320.5,336.26,326.21Z"/><path class="cls-1" d="M303.83,303.05c-3.3-5.45-7-11.63-12.4-11.63-4.44,0-6.07,5-8.05,12.7-.55,2.11-1.08,4.18-1.75,6,8.68-1.25,17.58-2.11,25-2.62C305.7,306.15,304.77,304.61,303.83,303.05Z"/><path class="cls-1" d="M319.47,312.81c-1.34,0-2.9.06-4.64.13h-.07a330.75,330.75,0,0,0-38.86,4c-9.59,1.65-17.16,3.59-22.52,5.77a25,25,0,0,0-6.31,3.46h83C328.39,320.81,322.6,315.3,319.47,312.81Z"/><path class="cls-1" d="M395.37,282.33,407.84,264l-7.27-4.76-13.72,20.14a16.16,16.16,0,0,1,7.92,2.5C395,282,395.18,282.18,395.37,282.33Z"/><rect class="cls-1" x="229.26" y="346.52" width="10.92" height="5.89"/><rect class="cls-1" x="328.66" y="346.52" width="10.92" height="5.89"/><path class="cls-4" d="M376.46,248.45a16.4,16.4,0,0,1-32.79,0V241h32.79Z"/><polygon class="cls-10" points="345.4 329.14 395.74 255.18 407.98 263.2 353.26 343.59 212.85 343.59 212.85 329.14 345.4 329.14"/><path class="cls-1" d="M353.37,290.21l10.53,6.47,6.38-9.37c-.77.26-1.56.54-2.36.85a3,3,0,0,1-3.87-1.66,2.91,2.91,0,0,1,1.69-3.8,57,57,0,0,1,7.86-2.43,11.06,11.06,0,0,0-4.78-2.29c-4.79-1.11-11.08-.06-16.46,2.63A13.5,13.5,0,0,1,353.37,290.21Z"/><path class="cls-1" d="M266.16,343.59a3,3,0,0,1,3-2.93h82.52L388,287.23a5.91,5.91,0,0,0-.63-.49c-2-1.34-4.94-1.8-8.59-1.43l-30.94,45.46a3,3,0,0,1-2.48,1.31H215.84v8.58H257.2a2.93,2.93,0,1,1,0,5.86h-15v5.89h76.53v-5.89H269.15A3,3,0,0,1,266.16,343.59Z"/><path class="cls-1" d="M353.37,290.21l10.53,6.47,6.38-9.37c-.77.26-1.56.54-2.36.85a3,3,0,0,1-3.87-1.66,2.91,2.91,0,0,1,1.69-3.8,57,57,0,0,1,7.86-2.43,11.06,11.06,0,0,0-4.78-2.29c-4.79-1.11-11.08-.06-16.46,2.63A13.5,13.5,0,0,1,353.37,290.21Z"/><path class="cls-1" d="M266.16,343.59a3,3,0,0,1,3-2.93h82.52L388,287.23a5.91,5.91,0,0,0-.63-.49c-2-1.34-4.94-1.8-8.59-1.43l-30.94,45.46a3,3,0,0,1-2.48,1.31H215.84v8.58H257.2a2.93,2.93,0,1,1,0,5.86h-15v5.89h76.53v-5.89H269.15A3,3,0,0,1,266.16,343.59Z"/><path class="cls-1" d="M349.81,317.39l10.77-15.83-9.74-6a13.22,13.22,0,0,1-10.4,5.62,10.54,10.54,0,0,1-4.08-.82l-.29-.14A40.77,40.77,0,0,1,332,305.7C335.53,309.87,342.58,316.53,349.81,317.39Z"/><path class="cls-7" d="M338.73,295a10.1,10.1,0,0,1-3-3.13l-4.37,5-.68.78c-3.42,5.31-7.3,9.3-14.19,9.3-1.63,0-3.66,0-6,.14h0c-1.25,0-4-4.57-5.51-7-3.91-6.46-8.77-14.51-17.53-14.51-9.42,0-12,9.9-13.84,17.13-.81,3.14-2.17,8.4-3.56,8.67h0c-15.88,2.79-26.09,6.25-31.14,10.63l-1.82-5.49a3,3,0,0,0-3.76-1.89,2.93,2.93,0,0,0-1.92,3.7l2.63,7.91H212.85a3,3,0,0,0-3,2.93v14.45a3,3,0,0,0,3,2.93h6.44v5.89h-6.44a2.94,2.94,0,1,0,0,5.87H408a2.94,2.94,0,1,0,0-5.87H341.55v-5.89h11.71a3,3,0,0,0,2.49-1.3l35.31-51.87a23.17,23.17,0,0,1,.29,3.79c0,20.07,5.52,25.49,7.88,27.8a3,3,0,0,0,4.22,0,2.88,2.88,0,0,0,0-4.14c-1.68-1.65-6.13-6-6.13-23.66a22.4,22.4,0,0,0-2-10l15.17-22.28a2.85,2.85,0,0,0,.44-2.2,2.9,2.9,0,0,0-1.27-1.86l-12.24-8a3,3,0,0,0-4.14.81l-3,4.42-5.16,7.57-7.22,10.61a16.91,16.91,0,0,0-7.67-3.87c-6.48-1.51-14.64-.09-21.48,3.59l-3,5.84m50.84-22.46,7.27,4.76-12.47,18.32c-.19-.15-.39-.3-.6-.44a16.16,16.16,0,0,0-7.92-2.5ZM368.82,278a11.06,11.06,0,0,1,4.78,2.29,57,57,0,0,0-7.86,2.43,2.91,2.91,0,0,0-1.69,3.8,3,3,0,0,0,3.87,1.66c.8-.31,1.59-.59,2.36-.85l-6.38,9.37-10.53-6.47a13.5,13.5,0,0,0-1-9.6C357.74,277.92,364,276.87,368.82,278Zm-8.24,23.58-10.77,15.83c-7.23-.86-14.28-7.52-17.8-11.69a40.77,40.77,0,0,0,4.06-5.47l.29.14a10.54,10.54,0,0,0,4.08.82m-12.89,8.4c3.23,3.78,10.19,10.86,18.66,13.08l-2.41,3.54H332.26c-1.19-5.71-5.55-11-9.1-14.45A18.71,18.71,0,0,0,327.55,309.59Zm-48.17-5.47c2-7.67,3.61-12.7,8.05-12.7,5.36,0,9.1,6.18,12.4,11.63.94,1.56,1.87,3.1,2.84,4.48-7.46.51-16.36,1.37-25,2.62C278.3,308.3,278.83,306.23,279.38,304.12Zm-30,18.63c5.36-2.18,12.93-4.12,22.52-5.77a330.75,330.75,0,0,1,38.86-4h.07c1.74-.07,3.3-.11,4.64-.13,3.13,2.49,8.92,8,10.64,13.4h-83A25,25,0,0,1,249.38,322.75Zm-13.2,29.66H225.26v-5.89h10.92Zm82.5,0H242.15v-5.89h15a2.93,2.93,0,1,0,0-5.86H215.84v-8.58H345.4a3,3,0,0,0,2.48-1.31l30.94-45.46c3.65-.37,6.59.09,8.59,1.43a5.91,5.91,0,0,1,.63.49l-36.37,53.43H269.15a2.93,2.93,0,1,0,0,5.86h49.53Zm16.89,0H324.66v-5.89h10.91Z"/><path class="cls-7" d="M330.68,297.65l18-21.78c1.64-.34,3.64,4.74,3.64,4.74l-16.29,19.62Z"/><path class="cls-4" d="M352.36,280.61s-15.52,18.82-16.29,19.62,1,10.25,3.33,12.46a19.07,19.07,0,0,0,10.41,4.7l14.75-21.72-10.39-14.49Z"/><path class="cls-4" d="M342.08,239.11v9.65a18,18,0,0,0,36,0v-9.65h0l-17.31-13L342.3,237.06"/><path class="cls-5" d="M369.38,248.76l.05-19.44,8.62,9.79v9.65a17.83,17.83,0,0,1-18,17.66,18.14,18.14,0,0,1-4.33-.52A17.72,17.72,0,0,0,369.38,248.76Z"/><path class="cls-7" d="M356.82,250.44v-3.85a3,3,0,0,0-6,0v3.85a3,3,0,0,0,6,0Z"/><path class="cls-7" d="M369.16,250.44v-3.85a3,3,0,0,0-6,0v3.85a3,3,0,0,0,6,0Z"/><path class="cls-1" d="M343.67,241v7.46a16.4,16.4,0,0,0,32.79,0V241Z"/><path class="cls-7" d="M360.06,273.15A25.13,25.13,0,1,1,385.19,248,25.15,25.15,0,0,1,360.06,273.15Zm0-43A17.9,17.9,0,1,0,378,248,17.92,17.92,0,0,0,360.06,230.13Z"/></g><path class="cls-13" d="M212,418.41C98.06,418.41,5.67,326,5.67,212S98.06,5.67,212,5.67,418.41,98.06,418.41,212,326,418.41,212,418.41"/></svg>