<svg id="Capa_1" data-name="Capa 1" xmlns="http://www.w3.org/2000/svg" viewBox="0 0 319.45 319.45"><defs><style>.cls-1{fill:#fff;}</style></defs><title>AN_6</title><path class="cls-1" d="M74,219.62h0a10,10,0,0,0,0-14.11l-35.79-35.8H169.71a10,10,0,0,0,10-10h0a10,10,0,0,0-10-10H38.22L74,114a10,10,0,0,0,0-14.12h0a10,10,0,0,0-14.11,0L0,159.73l59.9,59.89A10,10,0,0,0,74,219.62Z"/><path class="cls-1" d="M99.83,20H299.49V299.49H99.83v-10a10,10,0,0,0-10-10h0a10,10,0,0,0-10,10v20a10,10,0,0,0,10,10H309.47a10,10,0,0,0,10-10V10a10,10,0,0,0-10-10H89.85a10,10,0,0,0-10,10V30a10,10,0,0,0,10,10h0a10,10,0,0,0,10-10Z"/></svg>