<?xml version="1.0" encoding="utf-8"?>
<!-- Generator: Adobe Illustrator 24.1.2, SVG Export Plug-In . SVG Version: 6.00 Build 0)  -->
<svg version="1.1" id="Capa_1" xmlns="http://www.w3.org/2000/svg" xmlns:xlink="http://www.w3.org/1999/xlink" x="0px" y="0px"
	 viewBox="0 0 73.5 73.5" style="enable-background:new 0 0 73.5 73.5;" xml:space="preserve">
<style type="text/css">
	.st0{fill:#4B4B4B;}
	.st1{fill:url(#SVGID_1_);}
	.st2{fill:url(#SVGID_2_);}
	.st3{fill:#FFFFFF;}
</style>
<g>
	<path class="st3" d="M20.7,38.4c-1,0-1.8,0.8-1.8,1.8s0.8,1.8,1.8,1.8c1,0,1.8-0.8,1.8-1.8S21.7,38.4,20.7,38.4"/>
	<path class="st3" d="M45.7,15.3c0-4.9-4-8.9-8.9-8.9c-4.9,0-8.9,4-8.9,8.9c0,4.9,4,8.9,8.9,8.9C41.8,24.2,45.7,20.2,45.7,15.3
		 M36.9,20.6c-2.9,0-5.3-2.4-5.3-5.3c0-2.9,2.4-5.3,5.3-5.3c2.9,0,5.3,2.4,5.3,5.3C42.2,18.3,39.8,20.6,36.9,20.6"/>
	<path class="st3" d="M44,31.3H29.8c-1,0-1.8,0.8-1.8,1.8c0,1,0.8,1.8,1.8,1.8H44c1,0,1.8-0.8,1.8-1.8C45.7,32.1,45,31.3,44,31.3"/>
	<path class="st3" d="M62.5,33.4c-0.7,0.7-0.7,1.8,0,2.5c0.7,0.7,1,1.6,1,2.5c0,2-1.6,3.6-3.6,3.6h-0.1C59,32,50.6,24.2,40.4,24.2
		h-3.6h-5.3c-1.1,0-2.4,0.1-3.7,0.4c-2.4-2.5-5.6-3.9-9-3.9c-1,0-1.8,0.8-1.8,1.8v8c-2.1,2.3-3.7,5-4.5,8h-0.8
		c-2.9,0-5.3,2.4-5.3,5.3v3.7c0,2.9,2.4,5.3,5.3,5.3c0.6,0,1.5,0,2.1,0c1.2,2.4,3,4.6,5,6.3c0,2.4,0,6.2,0,6.3c0,1,0.8,1.8,1.8,1.8
		h7.1c1,0,1.8-0.8,1.8-1.8v-1.9c0.7,0.1,1.4,0.1,2,0.1h8.9v1.8c0,1,0.8,1.8,1.8,1.8h7.1c1,0,1.8-0.8,1.8-1.8c0,0,0-2.3,0-4.9
		c2.5-1.7,4.6-3.9,6.2-6.6c1.5-2.5,2.3-5.3,2.6-8.2H60c3.9,0,7.1-3.2,7.1-7.1c0-1.9-0.7-3.7-2.1-5C64.3,32.7,63.2,32.7,62.5,33.4
		 M48.4,57.8c-0.5,0.3-0.9,0.9-0.9,1.5c0,1.5,0,3,0,4.2H44v-5.3c0-1-0.8-1.8-1.8-1.8c-1,0-1.8,0.8-1.8,1.8V60h-8.9
		c-0.7,0-1.4,0-2-0.1v-1.7c0-1-0.8-1.8-1.8-1.8c-1,0-1.8,0.8-1.8,1.8v5.3h-3.6c0-1.6,0-4,0-5.3c0-0.6-0.3-1.1-0.7-1.4
		c-2.1-1.6-3.9-3.9-5-6.5c-0.3-0.6-0.9-1-1.6-1.1c-0.5,0-2.9,0-3.3,0c-1,0-1.8-0.8-1.8-1.8v-3.7c0-1,0.8-1.8,1.8-1.8h2.1
		c0,0,0,0,0,0c0,0,0,0,0,0c0.9,0,1.6-0.6,1.8-1.4c0.1-0.3,0.2-0.9,0.2-1.1c0.7-2.7,2.2-5.1,4.2-7.1c0.3-0.3,0.5-0.8,0.5-1.3v-6.8
		c2,0.4,3.8,1.5,5.2,3.2c0.4,0.5,1.1,0.8,1.8,0.6c1.3-0.3,2.7-0.5,3.9-0.5h8.9c8.8,0,16,7.2,16,16C56.4,49.5,53.3,55,48.4,57.8"/>
</g>
</svg>
