<svg id="Capa_1" data-name="Capa 1" xmlns="http://www.w3.org/2000/svg" viewBox="0 0 55.14 58.94"><path d="M27.54,3.64a1.07,1.07,0,0,0-1.07,1.07v6.37a1.07,1.07,0,0,0,2.14,0V4.71A1.07,1.07,0,0,0,27.54,3.64Z" style="fill:#d3a768"/><path d="M21.47,12.78l-2.56-2.56a1.07,1.07,0,0,0-1.51,1.52L20,14.3a1.06,1.06,0,0,0,.76.31,1,1,0,0,0,.75-.31A1.07,1.07,0,0,0,21.47,12.78Z" style="fill:#d3a768"/><path d="M37.68,10.23a1.06,1.06,0,0,0-1.51,0L33.45,13a1.07,1.07,0,0,0,0,1.52,1.1,1.1,0,0,0,.75.31,1.07,1.07,0,0,0,.76-.32l2.73-2.72A1.07,1.07,0,0,0,37.68,10.23Z" style="fill:#d3a768"/><path d="M47.94,31.91h-.87a5.41,5.41,0,0,0,1.13-3.32V27.08a5.46,5.46,0,0,0-10.91,0v1.18l-8-8.06a1.63,1.63,0,0,0-1.7-.38,1.6,1.6,0,0,0-1.69.38l-8.06,8.06V27.08a5.45,5.45,0,1,0-10.9,0v1.51A5.47,5.47,0,0,0,8,31.91H7.15a7,7,0,0,0-7,7V53.1A1.06,1.06,0,0,0,1.2,54.17H5.73a1.06,1.06,0,0,0,.31,0,1,1,0,0,0,.3,0h12a1.07,1.07,0,0,0,1.08-1.07V49.46a1.08,1.08,0,0,0-2.15,0V52H7.41V39.83a1.07,1.07,0,0,0-2.14,0V52h-3V38.92a4.87,4.87,0,0,1,4.87-4.87h7.44a1.07,1.07,0,0,0,.75-.31h0L26.47,22.61a11.82,11.82,0,0,1-2,6.22l-7,10.41a1,1,0,0,0-.19.59V41a1.08,1.08,0,0,0,2.15,0v-.85L26.23,30a14.1,14.1,0,0,0,1.31-2.45A14.81,14.81,0,0,0,28.85,30l6.83,10.13V53.1a1.06,1.06,0,0,0,1.07,1.07h12a1.06,1.06,0,0,0,.31,0,1.06,1.06,0,0,0,.31,0h4.52A1.06,1.06,0,0,0,55,53.1V38.92A7,7,0,0,0,47.94,31.91ZM15.65,28.59a3.31,3.31,0,1,1-6.62,0V27.08a3.31,3.31,0,0,1,6.62,0Zm23.78-1.51a3.32,3.32,0,0,1,6.63,0v1.51a3.32,3.32,0,1,1-6.63,0ZM52.81,52h-3V44.11a1.07,1.07,0,0,0-2.14,0V52H37.82V39.83a1,1,0,0,0-.18-.59l-7-10.41a11.72,11.72,0,0,1-2-6.22L39.74,33.73s0,0,0,0a1.08,1.08,0,0,0,.72.28h7.44a4.88,4.88,0,0,1,4.87,4.87V52Z" style="fill:#d3a768"/><path d="M49.5,39.08a1.06,1.06,0,0,0-1.52,0,1.06,1.06,0,0,0-.31.75,1.07,1.07,0,1,0,2.14,0A1.06,1.06,0,0,0,49.5,39.08Z" style="fill:#d3a768"/><path d="M19.6,44.56a1.05,1.05,0,1,0,.31.75A1,1,0,0,0,19.6,44.56Z" style="fill:#d3a768"/><path d="M27.59,3.69a1.07,1.07,0,0,0-1.07,1.08v6.36a1.07,1.07,0,1,0,2.14,0V4.77A1.07,1.07,0,0,0,27.59,3.69Z" style="fill:#d3a768"/><path d="M21.53,12.84,19,10.28a1.07,1.07,0,0,0-1.52,0,1.06,1.06,0,0,0,0,1.51L20,14.35a1.07,1.07,0,0,0,.76.31,1.07,1.07,0,0,0,.76-1.82Z" style="fill:#d3a768"/><path d="M37.74,10.28a1.07,1.07,0,0,0-1.52,0L33.5,13a1.07,1.07,0,0,0,0,1.52,1.06,1.06,0,0,0,.76.31,1.07,1.07,0,0,0,.76-.31l2.72-2.73A1.06,1.06,0,0,0,37.74,10.28Z" style="fill:#d3a768"/><path d="M48,32h-.86a5.46,5.46,0,0,0,1.12-3.31V27.14a5.46,5.46,0,1,0-10.91,0v1.17l-8.05-8a1.59,1.59,0,0,0-1.69-.38,1.61,1.61,0,0,0-1.7.38l-8,8V27.14a5.46,5.46,0,1,0-10.91,0v1.51A5.46,5.46,0,0,0,8.06,32H7.2a7,7,0,0,0-7,7V53.16a1.07,1.07,0,0,0,1.07,1.07H5.78a1.06,1.06,0,0,0,.31,0,1.06,1.06,0,0,0,.31,0h12a1.07,1.07,0,0,0,1.07-1.07V49.52a1.07,1.07,0,1,0-2.14,0v2.57H7.47V39.89a1.07,1.07,0,0,0-2.14,0v12.2h-3V39A4.88,4.88,0,0,1,7.2,34.1h7.44a1.09,1.09,0,0,0,.76-.31h0L26.52,22.67a11.8,11.8,0,0,1-2,6.21l-7,10.41a1.06,1.06,0,0,0-.18.6v1.17a1.07,1.07,0,0,0,2.14,0v-.85l6.82-10.13a14.77,14.77,0,0,0,1.32-2.44,14,14,0,0,0,1.31,2.44l6.82,10.13V53.16a1.07,1.07,0,0,0,1.07,1.07h12a1.06,1.06,0,0,0,.31,0,1.06,1.06,0,0,0,.31,0h4.52A1.07,1.07,0,0,0,55,53.16V39A7,7,0,0,0,48,32ZM15.71,28.65a3.32,3.32,0,0,1-6.63,0V27.14a3.32,3.32,0,1,1,6.63,0Zm23.78-1.51a3.31,3.31,0,1,1,6.62,0v1.51a3.31,3.31,0,0,1-6.62,0Zm13.37,25h-3V44.16a1.07,1.07,0,0,0-2.14,0v7.93H37.87V39.89a1.06,1.06,0,0,0-.18-.6l-7-10.41a11.89,11.89,0,0,1-2-6.21L39.79,33.79l0,0a1,1,0,0,0,.72.28H48A4.88,4.88,0,0,1,52.86,39V52.09Z" style="fill:#d3a768"/><path d="M49.55,39.13a1.07,1.07,0,0,0-1.51,0,1.09,1.09,0,0,0-.32.76,1.07,1.07,0,0,0,2.14,0A1.08,1.08,0,0,0,49.55,39.13Z" style="fill:#d3a768"/><path d="M19.66,44.61a1.06,1.06,0,0,0-1.5,1.5,1.06,1.06,0,0,0,1.5-1.5Z" style="fill:#d3a768"/></svg>