<?xml version="1.0" encoding="utf-8"?>
<!-- Generator: Adobe Illustrator 24.1.2, SVG Export Plug-In . SVG Version: 6.00 Build 0)  -->
<svg version="1.1" id="Capa_1" xmlns="http://www.w3.org/2000/svg" xmlns:xlink="http://www.w3.org/1999/xlink" x="0px" y="0px"
	 viewBox="0 0 73.5 73.5" style="enable-background:new 0 0 73.5 73.5;" xml:space="preserve">
<style type="text/css">
	.st0{fill:#4B4B4B;}
	.st1{fill:url(#SVGID_1_);}
	.st2{fill:url(#SVGID_2_);}
	.st3{fill:#FFFFFF;}
</style>
<g>
	<path class="st0" d="M55.6,36.2c-0.8,0-1.5,0.7-1.5,1.5v21.5H43.7V43c0-0.8-0.7-1.5-1.5-1.5H31.3c-0.8,0-1.5,0.7-1.5,1.5v16.3H19.5
		V37.8c0-0.8-0.7-1.5-1.5-1.5c-0.8,0-1.5,0.7-1.5,1.5v23c0,0.8,0.7,1.5,1.5,1.5h13.4c0.8,0,1.5-0.7,1.5-1.5V44.5h7.8v16.3
		c0,0.8,0.7,1.5,1.5,1.5h13.4c0.8,0,1.5-0.7,1.5-1.5V37.7C57.1,36.9,56.4,36.2,55.6,36.2"/>
	<path class="st0" d="M62.2,30.8l-4.3-3.4v-9c0-0.8-0.7-1.5-1.5-1.5h-6.8c-0.8,0-1.5,0.7-1.5,1.5v1.3l-10.3-8.1
		c-0.6-0.4-1.3-0.4-1.9,0L11.3,30.8c-0.7,0.5-0.8,1.5-0.3,2.1c0.5,0.7,1.5,0.8,2.1,0.3l23.6-18.5l11.8,9.3l6.8,5.4l4.9,3.9
		c0.7,0.5,1.6,0.4,2.1-0.3C63,32.2,62.9,31.3,62.2,30.8L62.2,30.8z M54.8,19.9V25l-3.8-3v-2.1H54.8z"/>
</g>
</svg>
