<?xml version="1.0" encoding="utf-8"?>
<!-- Generator: Adobe Illustrator 24.1.2, SVG Export Plug-In . SVG Version: 6.00 Build 0)  -->
<svg version="1.1" id="Capa_1" xmlns="http://www.w3.org/2000/svg" xmlns:xlink="http://www.w3.org/1999/xlink" x="0px" y="0px"
	 viewBox="0 0 73.5 73.5" style="enable-background:new 0 0 73.5 73.5;" xml:space="preserve">
<style type="text/css">
	.st0{fill:#4B4B4B;}
	.st1{fill:url(#SVGID_1_);}
	.st2{fill:url(#SVGID_2_);}
	.st3{fill:#FFFFFF;}
</style>
<g>
	<path class="st0" d="M11.7,18.9c-1-0.4-2.1,0-2.5,1c-1.7,3.8-2.5,7.9-2.5,12c0,4.2,0.9,8.2,2.5,12c0.3,0.7,1,1.1,1.7,1.1
		c0.3,0,0.5-0.1,0.8-0.2c1-0.4,1.4-1.5,1-2.5c-1.5-3.3-2.2-6.9-2.2-10.5c0-3.6,0.7-7.2,2.2-10.5C13.1,20.4,12.6,19.3,11.7,18.9"/>
	<path class="st0" d="M64.3,19.8c-0.4-1-1.5-1.4-2.5-1c-1,0.4-1.4,1.5-1,2.5c1.5,3.3,2.2,6.9,2.2,10.5c0,3.6-0.7,7.2-2.2,10.5
		c-0.4,1,0,2.1,1,2.5c0.2,0.1,0.5,0.2,0.8,0.2c0.7,0,1.4-0.4,1.7-1.1c1.7-3.8,2.5-7.9,2.5-12S65.9,23.6,64.3,19.8"/>
	<path class="st0" d="M56.7,43.7c-0.3-0.3-0.5-0.7-0.5-1.2l0-11.2c0-7.7-4.5-14.5-11.4-17.7c-1.4-3.2-4.6-5.3-8.1-5.3
		c-3.5,0-6.7,2.1-8.1,5.3c-6.9,3.2-11.3,10.1-11.3,17.7l0,11.2c0,0.4-0.2,0.9-0.5,1.2l-2.5,2.5c-0.4,0.4-0.6,0.8-0.5,1.3l0,7
		c0,0.5,0.2,1,0.6,1.3c0.4,0.4,0.8,0.6,1.3,0.5l10.7,0c0.9,5,5.3,8.7,10.5,8.7c5.2,0,9.6-3.8,10.4-8.8l10.7,0c1,0,1.9-0.8,1.9-1.9
		l0-7c0-0.5-0.2-1-0.6-1.3L56.7,43.7z M56,52.6l-38.5,0.1l0-4.3l1.9-1.9c0.5-0.6,1-1.2,1.2-1.9l32.1,0c0.3,0.7,0.7,1.4,1.2,1.9
		l1.9,1.9L56,52.6z M30.2,56.4l13.2,0c-0.8,2.9-3.5,5-6.6,5C33.7,61.4,31,59.3,30.2,56.4 M31.9,15.7c0.7-2.1,2.7-3.6,4.9-3.6
		c2.2,0,4.2,1.4,4.9,3.5c0.2,0.5,0.6,0.9,1.1,1.1c5.9,2.4,9.8,8.1,9.8,14.5l0,9.3l-31.4,0l0-9.3c0-6.4,3.8-12.1,9.8-14.6
		C31.3,16.6,31.7,16.2,31.9,15.7"/>
</g>
</svg>
