<?xml version="1.0" encoding="utf-8"?>
<!-- Generator: Adobe Illustrator 24.1.2, SVG Export Plug-In . SVG Version: 6.00 Build 0)  -->
<svg version="1.1" id="Capa_1" xmlns="http://www.w3.org/2000/svg" xmlns:xlink="http://www.w3.org/1999/xlink" x="0px" y="0px"
	 viewBox="0 0 73.5 73.5" style="enable-background:new 0 0 73.5 73.5;" xml:space="preserve">
<style type="text/css">
	.st0{fill:#4B4B4B;}
	.st1{fill:url(#SVGID_1_);}
	.st2{fill:url(#SVGID_2_);}
	.st3{fill:#FFFFFF;}
</style>
<path class="st3" d="M68,21.8c-0.6-0.6-1.5-1-2.4-1l-1,0v-5.1c0-0.9-0.4-1.8-1-2.5c-0.7-0.7-1.5-1-2.5-1
	c-14.4,0.3-21.7,3.7-24.3,5.1c-2.5-1.5-9.8-4.9-24.3-5.1c-1,0-1.8,0.3-2.5,1c-0.7,0.7-1,1.5-1,2.5v5.1l-1,0c-0.9,0-1.8,0.4-2.4,1
	c-0.7,0.7-1,1.5-1,2.4v33.6c0,1,0.5,2,1.3,2.7c0.8,0.6,1.9,0.9,2.9,0.7c12.9-2.8,21.7-2,25.7-1.3c0.8,0.1,3.8,0.1,4.6,0
	c4.1-0.7,12.8-1.5,25.7,1.3c0.2,0.1,0.5,0.1,0.7,0.1c0.8,0,1.5-0.3,2.2-0.8c0.8-0.7,1.3-1.6,1.3-2.7V24.2C69,23.3,68.6,22.4,68,21.8
	L68,21.8z M38.5,20.4c2.2-1.3,8.9-4.4,22.6-4.7l0,35.8c-11.8-0.5-19.2,2.3-22.6,4.1V24.3L38.5,20.4z M65.4,58.2l0.1-0.3l0,0
	c-5.9-1.3-11.6-2-16.9-2c3.8-0.7,7.9-1,12.3-0.8c0.9,0,1.9-0.3,2.5-1c0.7-0.7,1.1-1.5,1.1-2.5V24.2l1,0l0,33.6L65.4,58.2z
	 M12.4,51.5l0-35.9C26.2,15.9,32.8,19,35,20.3l0,35.3c-3-1.5-9.6-4.1-19.9-4.1C14.2,51.5,13.3,51.5,12.4,51.5 M10,54
	c0.7,0.6,1.6,1,2.5,1c4.4-0.2,8.5,0.1,12.3,0.8c-5.3,0.1-11,0.7-16.9,2l0-33.6l1,0v27.3C9,52.5,9.4,53.4,10,54"/>
</svg>
