<?xml version="1.0" encoding="utf-8"?>
<!-- Generator: Adobe Illustrator 24.1.2, SVG Export Plug-In . SVG Version: 6.00 Build 0)  -->
<svg version="1.1" id="Capa_1" xmlns="http://www.w3.org/2000/svg" xmlns:xlink="http://www.w3.org/1999/xlink" x="0px" y="0px"
	 viewBox="0 0 73.5 73.5" style="enable-background:new 0 0 73.5 73.5;" xml:space="preserve">
<style type="text/css">
	.st0{fill:#FFFFFF;}
</style>
<g>
	<path class="st0" d="M67.6,29.2c-0.2-1.2-1.8-2-4.1-2.6c0.5-0.4,0.7-0.9,0.7-1.4v-5.9c0-0.1,0-0.2,0-0.2
		c-0.5-3.2-11.5-3.6-16.3-3.6s-15.8,0.4-16.3,3.6c0,0.1,0,0.2,0,0.2v5.9c0,1.3,1.7,2.2,4.1,2.8c-0.4,0.3-0.6,0.7-0.7,1.1
		c0,0.1,0,0.2,0,0.2v5.9c0,0,0,0,0,0.1c-3.2-0.4-6.8-0.5-9.1-0.5c-4.8,0-15.8,0.4-16.3,3.6c0,0.1,0,0.2,0,0.2v5.9
		c0,0.3,0.1,0.5,0.2,0.8C7.7,46,6.1,46.8,5.9,48c0,0.1,0,0.2,0,0.2v5.9c0,3.5,11.4,3.9,16.3,3.9c3.2,0,9-0.2,12.8-1.2
		c3.8,1,9.6,1.2,12.8,1.2c4.9,0,16.3-0.4,16.3-3.9v-5.9c0-0.1,0-0.2,0-0.2c-0.1-0.8-1-1.5-2.2-2c0.4-0.4,0.6-0.8,0.6-1.3v-5.9
		c0-0.1,0-0.2,0-0.2v-0.1c3-0.6,5.2-1.5,5.2-3v-5.9C67.6,29.4,67.6,29.3,67.6,29.2 M46.1,46.2c-1.7,0-3.2,0-4.6-0.1
		c0.4-0.4,0.7-0.8,0.7-1.3v-2.1c1.5,0.1,2.8,0.1,3.9,0.1c3.5,0,10.3-0.2,13.9-1.6v3.4C59.1,45.1,54.4,46.2,46.1,46.2 M47.7,55.6
		c-4,0-7.2-0.3-9.5-0.6c0.2-0.3,0.3-0.6,0.3-0.9v-2.6c3.3,0.4,6.9,0.5,9.2,0.5c3.5,0,10.3-0.2,13.9-1.6v3.4
		C60.7,54.5,56,55.6,47.7,55.6 M22.2,55.6c-8.3,0-13-1.1-13.9-1.7v-3.4c3.6,1.4,10.4,1.6,13.9,1.6s10.3-0.2,13.9-1.6v3.4
		C35.2,54.5,30.5,55.6,22.2,55.6 M12,44.4V41c3.6,1.4,10.4,1.6,13.9,1.6s10.3-0.2,13.9-1.6v3.4c-1,0.7-5.7,1.8-13.9,1.8
		S13,45.1,12,44.4 M61.3,19.3c-1.7,0.6-6.2,1.5-13.4,1.5S36.3,20,34.6,19.3c1.7-0.6,6.2-1.5,13.4-1.5S59.6,18.7,61.3,19.3 M34,21.6
		c3.6,1.4,10.4,1.6,13.9,1.6s10.3-0.2,13.9-1.6V25c-1,0.7-5.7,1.8-13.9,1.8S35,25.6,34,25V21.6z M37.9,29.5c0.6-0.2,1.4-0.4,2.5-0.7
		c2.8,0.3,5.6,0.3,7.4,0.3c2.7,0,7.3-0.1,10.9-0.8c2.9,0.3,4.8,0.7,5.8,1.1c-1.7,0.6-6.2,1.5-13.4,1.5
		C44.1,30.9,39.6,30.1,37.9,29.5 M46.1,48.6c3,0,8.4-0.1,12.1-1c1.3,0.2,2.2,0.5,2.8,0.7c-1.7,0.6-6.2,1.5-13.4,1.5
		c-3.8,0-6.9-0.2-9.2-0.6v-0.9l0,0C41.3,48.5,44.2,48.6,46.1,48.6 M25.9,48.6c2.2,0,5.9-0.1,9.1-0.5c0.2,0.1,0.4,0.1,0.5,0.2
		c-1.7,0.6-6.2,1.5-13.4,1.5S10.4,49,8.7,48.3c0.8-0.3,2.2-0.6,4.2-0.9C16.8,48.4,22.7,48.6,25.9,48.6 M42.2,38.8
		C42.2,38.8,42.2,38.7,42.2,38.8c3.2,0.3,6.8,0.4,9.1,0.4c2,0,5.1-0.1,8-0.4c-1.8,0.6-6.2,1.4-13.2,1.4c-1.4,0-2.7,0-3.9-0.1V38.8z
		 M39.3,38.8c-1.7,0.6-6.2,1.5-13.4,1.5s-11.7-0.8-13.4-1.5c1.7-0.6,6.2-1.5,13.4-1.5S37.6,38.1,39.3,38.8 M51.3,36.8
		c-8.3,0-13-1.1-13.9-1.7v-3.4c3.6,1.4,10.4,1.6,13.9,1.6s10.3-0.2,13.9-1.6v3.4C64.3,35.7,59.6,36.8,51.3,36.8"/>
	<path class="st0" d="M19.5,23.5l2.4-2.4v11.1c0,0.8,0.6,1.4,1.4,1.4s1.4-0.6,1.4-1.4V21.1l2.4,2.4c0.6,0.6,1.5,0.6,2,0
		c0.6-0.6,0.6-1.5,0-2l-5.3-5.3c-0.3-0.3-0.8-0.3-1.1,0l-5.3,5.3c-0.6,0.6-0.6,1.5,0,2C18.1,24,19,24,19.5,23.5"/>
</g>
</svg>
