<?xml version="1.0" encoding="utf-8"?>
<!-- Generator: Adobe Illustrator 24.1.2, SVG Export Plug-In . SVG Version: 6.00 Build 0)  -->
<svg version="1.1" id="Capa_1" xmlns="http://www.w3.org/2000/svg" xmlns:xlink="http://www.w3.org/1999/xlink" x="0px" y="0px"
	 viewBox="0 0 73.5 73.5" style="enable-background:new 0 0 73.5 73.5;" xml:space="preserve">
<style type="text/css">
	.st0{fill:#4B4B4B;}
	.st1{fill:url(#SVGID_1_);}
	.st2{fill:url(#SVGID_2_);}
	.st3{fill:#FFFFFF;}
</style>
<path class="st0" d="M69.3,22.5c-1.9-7-7.6-12.4-14.8-14.3l-0.1,0c-5.6-1.4-12,0.3-17.6,4.6c-2.9-2.2-7.2-4.8-12.3-5.1
	c-1.8-0.1-3.6,0-5.3,0.5l-0.1,0c-7.2,1.9-12.8,7.3-14.8,14.3c-1.9,7,0.1,14.5,5.4,19.6l13.1,12.7l0,0l0.2,0.2c0,0,0,0,0,0l0.4,0.4
	l0.1-0.1h0l-0.1,0.1l0,0c0,0,0,0,0,0l0,0c0,0,0,0,0,0l0,0c0,0,0,0,0,0l0,0c0,0,0,0,0,0l8.8,8.5c1.2,1.2,2.8,1.8,4.4,1.8
	c1.6,0,3.2-0.6,4.4-1.8l22.7-21.9C69.1,37.1,71.2,29.5,69.3,22.5z M60,38.1L37.3,60c-0.3,0.3-0.8,0.3-1.1,0L13.5,38.1
	C9.7,34.5,8.2,29,9.6,24c1.4-5,5.5-9,10.8-10.4v0l0,0c5.3-1.4,11,1.6,14.5,4.8c1.1,1,2.7,1,3.8,0c3.5-3.2,9.2-6.2,14.5-4.8l0.1,0
	C58.4,15,62.5,19,63.9,24C65.3,29,63.8,34.5,60,38.1z"/>
</svg>
