<?xml version="1.0" encoding="utf-8"?>
<!-- Generator: Adobe Illustrator 24.2.0, SVG Export Plug-In . SVG Version: 6.00 Build 0)  -->
<svg version="1.1" id="Capa_1" xmlns="http://www.w3.org/2000/svg" xmlns:xlink="http://www.w3.org/1999/xlink" x="0px" y="0px"
	 viewBox="0 0 73.5 73.5" style="enable-background:new 0 0 73.5 73.5;" xml:space="preserve">
<style type="text/css">
	.st0{fill:#FFFFFF;}
</style>
<path class="st0" d="M36.8,16.8C26,17,17.4,26,17.7,36.8c0.2,10.5,8.7,18.9,19.2,19.2c5.8,0,11.4-2.7,15-7.3c0.3-0.3,0.3-0.7,0-1
	c0,0,0,0,0,0c-0.2-0.3-0.7-0.3-0.9-0.1c0,0,0,0-0.1,0.1l0,0l-0.1,0.2c-3.4,4.3-8.5,6.7-14,6.7c-10.1,0.1-18.3-7.9-18.5-18
	c-0.1-10.1,7.9-18.3,18-18.5s18.3,7.9,18.5,18c0,0.1,0,0.2,0,0.3c0,2.2-0.4,4.4-1.2,6.4c-0.2,0.3-0.1,0.7,0.3,0.9c0,0,0,0,0,0
	c0.3,0.2,0.8,0.1,0.9-0.3c0-0.1,0.1-0.1,0.1-0.2c0.8-2.2,1.2-4.6,1.2-6.9C56.1,25.7,47.5,16.9,36.8,16.8z M64.3,20.2
	c-0.1,0-0.2,0-0.2,0.1c-2.8,1.3-4.7,4.1-4.7,7.2V35c0,0.4,0.4,0.6,0.8,0.6c0.3,0,0.6-0.3,0.6-0.6v-7.5c0-2.2,1.1-4.2,2.9-5.4V39H61
	c-0.4,0-0.7,0.3-0.7,0.7c0,0.4,0.3,0.6,0.7,0.7h2.7v15.3c0,0.4,0.4,0.6,0.8,0.6c0.3,0,0.6-0.3,0.6-0.6V20.9
	C65,20.5,64.7,20.2,64.3,20.2L64.3,20.2L64.3,20.2z M6.9,21.7c-0.3,0.1-0.5,0.4-0.5,0.7v6.2c-0.1,2.5,1.6,4.7,4,5.2v21.8
	c0,0.4,0.3,0.7,0.7,0.7c0.4,0,0.7-0.3,0.7-0.7V33.8c2.4-0.5,4.1-2.7,4-5.2v-6.2c0-0.4-0.3-0.7-0.7-0.7c-0.4,0-0.7,0.3-0.7,0.7v6.2
	c0.2,2-1.3,3.7-3.3,3.9c0,0,0,0,0,0c-2-0.2-3.5-1.9-3.3-3.9c0,0,0,0,0,0v-6.2c0-0.4-0.3-0.7-0.7-0.7c0,0,0,0,0,0L6.9,21.7z
	 M10.9,21.7c-0.3,0.1-0.5,0.4-0.5,0.7v6.3c0,0.4,0.3,0.7,0.7,0.7c0,0,0,0,0,0c0.4,0,0.6-0.3,0.7-0.6v-6.3c0-0.4-0.3-0.7-0.6-0.7
	c0,0,0,0,0,0L10.9,21.7z M36.7,23.3c-0.4,0.1-0.6,0.4-0.6,0.8c0.1,0.3,0.3,0.6,0.7,0.6c6.5-0.1,11.8,5,12,11.5
	c0.1,6.5-5,11.8-11.5,12c-6.5,0.1-11.8-5-12-11.5c0-0.1,0-0.1,0-0.2c0-4,2-7.8,5.4-9.9c0.3-0.2,0.5-0.6,0.4-0.9
	c-0.2-0.3-0.5-0.5-0.9-0.4c-0.1,0-0.1,0.1-0.2,0.1c-3.8,2.4-6,6.6-6,11.1c0.1,7.1,6,12.8,13.1,12.7c7.1-0.1,12.8-6,12.7-13.1
	c-0.1-7.1-5.9-12.8-13-12.7L36.7,23.3L36.7,23.3z"/>
<path class="st0" d="M11.1,57L11.1,57c-0.7,0-1.3-0.6-1.3-1.4c0,0,0,0,0,0V34.3c-2.4-0.8-4.1-3.1-4-5.7v-6.2c0-0.6,0.4-1.2,1-1.3
	l0,0c0.1,0,0.2,0,0.3,0c0.7,0,1.3,0.6,1.3,1.4v6.2c-0.1,1.6,1.1,3.1,2.7,3.2c1.6-0.2,2.8-1.6,2.7-3.2v-6.2c0-0.4,0.1-0.7,0.4-1
	c0.3-0.3,0.6-0.4,1-0.4c0.7,0,1.3,0.6,1.3,1.4c0,0,0,0,0,0v6.2c0.1,2.6-1.6,4.9-4,5.7v21.4c0,0.3-0.2,0.6-0.4,0.9
	C11.8,56.9,11.4,57,11.1,57z M64.3,57L64.3,57c-0.7,0-1.3-0.6-1.3-1.4c0,0,0,0,0,0l0,0V41h-2c-0.4,0-0.7-0.1-1-0.4
	c-0.5-0.5-0.5-1.4,0-1.9c0.3-0.2,0.6-0.4,1-0.4h2V23.5c-1,1.1-1.6,2.5-1.5,3.9V35c0,0.8-0.6,1.4-1.4,1.4c0,0-0.1,0-0.1,0l0,0
	c-0.7,0-1.3-0.6-1.3-1.4v-7.5c0-3.4,2-6.4,5.1-7.8c0.2-0.1,0.3-0.1,0.5-0.1l0,0c0.8,0,1.4,0.6,1.4,1.3c0,0,0,0,0,0l0,0v34.8
	c0,0.4-0.1,0.7-0.4,1C65,56.9,64.6,57,64.3,57z M61,39.7h3.3v16V20.9l0,0v18.8H61z M36.9,56.7c-11.2,0.2-20.4-8.8-20.6-20
	c-0.2-11.2,8.8-20.4,20-20.6c11.2-0.2,20.4,8.8,20.6,20c0,0.1,0,0.2,0,0.3c0,2.4-0.4,4.8-1.3,7.1c0,0.1-0.1,0.2-0.1,0.3
	c-0.4,0.7-1.2,0.9-1.8,0.6l0,0c-0.6-0.4-0.9-1.1-0.6-1.8c3.3-9-1.4-18.9-10.3-22.1s-18.9,1.4-22.1,10.3S22,49.6,31,52.9
	c1.9,0.7,3.9,1,5.9,1c5.2,0,10.2-2.4,13.4-6.4c0.1-0.1,0.1-0.2,0.2-0.2c0.5-0.5,1.4-0.5,1.9,0l0,0c0.5,0.5,0.5,1.3,0,1.9
	C48.6,53.9,42.9,56.7,36.9,56.7L36.9,56.7z M54.6,42.3c-0.1,0.3-0.2,0.5-0.3,0.8l0,0C54.4,42.8,54.5,42.5,54.6,42.3z M36.8,50.2
	c-7.6-0.1-13.7-6.4-13.6-14c0.1-4.6,2.4-8.9,6.3-11.4c0.6-0.5,1.4-0.4,1.9,0.2c0.1,0.1,0.1,0.2,0.2,0.3l0,0c0.3,0.7,0,1.5-0.6,1.8
	c-5,3.2-6.5,10-3.3,15s10,6.5,15,3.3s6.5-10,3.3-15c-2-3.1-5.5-5-9.2-5c-0.8,0-1.3-0.6-1.3-1.4c0-0.6,0.5-1.2,1.1-1.3l0,0
	c0.1,0,0.2,0,0.2,0l0,0c7.6,0.2,13.6,6.6,13.4,14.2C50,44.1,44.1,50,36.8,50.2L36.8,50.2z M30.3,25.9c-3.6,2.3-5.7,6.3-5.7,10.5
	c0.1,6.8,5.7,12.2,12.4,12.1S49.2,42.8,49.1,36c-0.1-6-4.5-11-10.3-11.9c6.7,1,11.4,7.3,10.3,14s-7.3,11.4-14,10.3
	s-11.4-7.3-10.3-14C25.3,30.9,27.3,27.8,30.3,25.9L30.3,25.9L30.3,25.9z M36.7,23.3l0.1,0.7l0,0L36.7,23.3z M11.1,30L11.1,30
	c-0.7,0-1.3-0.6-1.3-1.4c0,0,0,0,0,0v-6.2c0-0.6,0.4-1.2,1-1.3c0.1,0,0.2,0,0.3,0c0.7,0,1.3,0.6,1.3,1.4c0,0,0,0,0,0l0,0v6.3
	c0,0.3-0.2,0.7-0.4,0.9C11.7,29.9,11.4,30,11.1,30z M11.1,22.3L11.1,22.3L11.1,22.3v6.3V22.3z"/>
</svg>
