<?xml version="1.0" encoding="utf-8"?>
<!-- Generator: Adobe Illustrator 24.2.0, SVG Export Plug-In . SVG Version: 6.00 Build 0)  -->
<svg version="1.1" id="Capa_1" xmlns="http://www.w3.org/2000/svg" xmlns:xlink="http://www.w3.org/1999/xlink" x="0px" y="0px"
	 viewBox="0 0 73.5 73.5" style="enable-background:new 0 0 73.5 73.5;" xml:space="preserve">
<style type="text/css">
	.st0{fill:#FFFFFF;}
</style>
<path class="st0" d="M58.3,20.5c-0.6,0.5-1.2,0.9-1.8,1.4c-0.4,0.3-0.4,0.9-0.1,1.3c0.2,0.2,0.4,0.3,0.7,0.3c0.2,0,0.4-0.1,0.6-0.2
	c0.5-0.5,1.1-0.9,1.7-1.4c1-0.8,1.3-2.3,0.5-3.4l-0.3-0.4c-0.3-0.4-0.9-0.4-1.3-0.1c-0.3,0.3-0.4,0.7-0.2,1.1l0,0l0.2,0.4
	C58.7,19.9,58.6,20.3,58.3,20.5z"/>
<path class="st0" d="M63.3,30.7c-0.4-0.3-1-0.2-1.3,0.2l-0.3,0.4c-0.2,0.3-0.7,0.4-1,0.2c-0.4-0.2-0.7-0.5-1.1-0.8
	c-0.4-0.3-1-0.2-1.3,0.3c-0.3,0.4-0.2,1,0.3,1.3l0,0c0.4,0.2,0.7,0.5,1.1,0.8c1.1,0.8,2.7,0.5,3.5-0.6l0.3-0.4
	C63.8,31.6,63.7,31,63.3,30.7z"/>
<path class="st0" d="M69.4,42.2c0.2,0.2,0.4,0.4,0.7,0.4h0.2c0.3-0.1,0.6-0.3,0.7-0.7c0.6-2.8,0.4-5.7-0.6-8.4
	c-2-5.8-7.7-9.4-13.8-8.7c-0.7-0.6-1.5-0.9-2.4-1h-0.2c-0.1-0.6-0.4-1.2-0.8-1.7c1.2-4.5,5.2-7.7,9.9-7.8c1.6,0,3.2,0.2,4.7,0.7
	c-1.9,0.7-3.6,1.6-5.3,2.7C61.9,18,61.8,18.5,62,19c0,0,0,0,0,0c0.3,0.4,0.8,0.6,1.2,0.3c0,0,0,0,0,0c2.2-1.4,4.6-2.5,7.1-3.3
	c0.5-0.2,0.7-0.7,0.6-1.2c-0.1-0.2-0.2-0.3-0.3-0.5c-2.3-1.3-4.9-2-7.6-1.8c-5.2,0.1-9.8,3.5-11.4,8.4c-0.5-0.2-0.9-0.3-1.4-0.3
	c-1.1-0.1-2.1,0.3-2.9,1.1c-0.5,0.4-0.8,0.9-1,1.5c-1.4-0.2-2.8-0.4-4.3-0.4c-0.2,0-0.4-0.2-0.5-0.5v-0.4c0-0.5-0.4-0.9-0.9-0.9
	c0,0,0,0,0,0l0,0c-0.5,0-0.9,0.4-0.9,0.9c0,0,0,0,0,0l0,0v0.4c0,1.2,0.9,2.2,2.2,2.3c1.4,0.1,2.9,0.2,4.3,0.5
	c0.2,0.2,0.4,0.4,0.7,0.4c0.5,0,1-0.3,1-0.9c0,0,0,0,0,0c0-0.6,0.2-1.1,0.6-1.5c0.4-0.4,1-0.6,1.6-0.6c0.6,0,1.1,0.3,1.5,0.7
	c0.3,0.3,0.5,0.7,0.5,1.2c-0.5,0.3-1,0.7-1.4,1.1c-0.3,0.4-0.2,1,0.2,1.3c0.4,0.3,0.9,0.2,1.3-0.1l0,0c0.7-1,2.1-1.2,3.1-0.4
	c0,0,0,0,0,0c0.6,0.4,0.9,1.1,0.9,1.8c0,0.6-0.3,1.1-0.7,1.5c-0.4,0.4-1,0.6-1.6,0.6C53,30,52.3,29.5,52,28.8
	c-0.3-0.4-0.8-0.6-1.2-0.3c-0.4,0.2-0.5,0.7-0.4,1.1c0.3,0.6,0.7,1.1,1.3,1.5c-0.4,0.7-1.2,1.1-2,1c-0.6,0-1.1-0.3-1.5-0.7
	c-0.8-0.9-0.8-2.3,0.1-3.1c0.1-0.1,0.1-0.1,0.2-0.2c0.4-0.2,0.6-0.8,0.4-1.2c-0.2-0.4-0.8-0.6-1.2-0.4c-0.1,0-0.1,0.1-0.2,0.1l0,0
	l0,0c-1.8,1.3-2.1,3.8-0.8,5.6c0.1,0.1,0.2,0.2,0.2,0.3c0.2,0.2,0.4,0.4,0.6,0.5c-0.7,0.8-1.3,1.7-2,2.5c-0.2,0.3-0.7,0.4-1,0.2
	c0,0,0,0,0,0l-0.4-0.3c-0.4-0.3-1-0.2-1.3,0.2s-0.2,1,0.2,1.3l0,0l0,0l0.4,0.3c1.1,0.8,2.7,0.5,3.5-0.6c0.7-1,1.5-2,2.3-2.8h0.4h0.2
	c1.5,0,2.9-0.8,3.5-2.1c0.2,0,0.3,0,0.5,0H54c2.3,4.2,4,8.7,5.1,13.3l-1.8-0.1c-0.5-0.1-0.9,0.3-1,0.8c0,0,0,0,0,0.1
	c0,0.5,0.3,1,0.8,1c0,0,0,0,0,0l2.3,0.1c0.3,1.6,0.6,3.4,0.8,5.2c0.1,0.5,0.4,0.8,0.9,0.8h0.1c0.5-0.1,0.9-0.5,0.8-1
	c-0.2-2-0.5-3.9-0.9-5.9c0-0.1,0-0.2-0.1-0.4c-1.1-5-2.9-9.7-5.3-14.2c1.3-0.7,2.2-2,2.2-3.4c0-0.5-0.1-1-0.2-1.5
	c4.9-0.1,9.3,3,10.9,7.6c0.6,1.7,0.9,3.5,0.8,5.2c-1.4-1.7-2.9-3.3-4.6-4.7c-0.4-0.3-0.9-0.3-1.3,0.1l0,0c-0.3,0.4-0.3,1,0.1,1.3
	C65.8,37.9,67.7,39.9,69.4,42.2z"/>
<path class="st0" d="M40,49.2c0,0,0.1,0,0.1,0c0.3,0,0.6-0.3,0.7-0.6c0.8-2.6,1.9-5.2,3.3-7.5c0.2-0.5,0-1-0.4-1.2
	c-0.4-0.2-0.9-0.1-1.1,0.3c-1.1,1.9-2,3.8-2.8,5.8c-0.6-1.6-0.9-3.4-0.9-5.1c0-3.7,1.9-7.2,5-9.3c0.4-0.3,0.5-0.9,0.2-1.3
	c-0.3-0.4-0.8-0.5-1.2-0.3c-3.6,2.4-5.7,6.4-5.8,10.7c-0.1,2.8,0.7,5.6,2.1,8C39.4,49,39.7,49.2,40,49.2z"/>
<path class="st0" d="M29.9,25.4c0.2,0.2,0.4,0.3,0.7,0.3c0.1,0,0.2,0,0.2,0c2.2-0.6,4.5-1,6.8-1.2c0.5,0,0.9-0.4,0.9-0.9
	c0,0,0,0,0,0l0,0c0-0.5-0.5-0.9-1-0.9c0,0,0,0,0,0c-1.7,0.1-3.4,0.3-5,0.7c0.8-1,1.8-1.9,2.9-2.7c3-2,6.9-2,10-0.1
	c0.4,0.3,1,0.2,1.3-0.3c0.3-0.4,0.2-1-0.3-1.3c-3.6-2.3-8.3-2.3-11.9,0.1c-2,1.3-3.7,3.1-4.7,5.2C29.7,24.8,29.7,25.2,29.9,25.4z"/>
<path class="st0" d="M54.7,54.3c-0.9,0-1.8,0-2.6,0.1c0.2-0.6,0.4-1.3,0.7-2.2l2.5,0.1l0,0c0.5,0,0.9-0.4,0.9-0.9c0,0,0,0,0,0
	c0-0.5-0.4-0.9-0.9-1l-2.2-0.1c0.6-3,1-6,0.9-9H55l0,0c0.5,0,0.9-0.4,0.9-0.9c0.1-0.5-0.3-0.9-0.8-1c0,0,0,0-0.1,0h-1
	c-0.1-1.5-0.3-3-0.5-4.4c-0.1-0.5-0.6-0.8-1.1-0.6c-0.4,0.1-0.7,0.5-0.6,0.9c1.2,6.4,0.6,13-1.7,19.1c-7.3,0.8-11.8,2.9-14.5,4.8
	c-0.4,0.3-0.5,0.9-0.2,1.3s0.9,0.5,1.3,0.2l0,0c3-2.1,8.5-4.6,18.1-4.7c0.5,0,0.9-0.4,0.9-0.9l0,0C55.6,54.7,55.2,54.3,54.7,54.3
	C54.7,54.3,54.7,54.3,54.7,54.3L54.7,54.3L54.7,54.3z"/>
<path class="st0" d="M19.8,28c0.2,0,0.4,0.1,0.5,0.2l17.9,14c0.4,0.3,0.5,0.9,0.2,1.3S37.4,44,37,43.7L19.7,30.1L2.5,43.7
	c-0.4,0.3-1,0.2-1.3-0.2c-0.3-0.4-0.2-1,0.1-1.3L8,37v-8.1C8.1,28.4,8.4,28,8.9,28h3.8c0.5,0,1,0.4,1,0.9c0,0,0,0,0,0.1v3.6l5.5-4.4
	C19.4,28.1,19.6,28,19.8,28L19.8,28z M11.8,29.9H9.9v5.6l1.9-1.5L11.8,29.9z M31.5,40.6l1.9,1.5v15c0,0.5-0.5,0.9-1,0.9h-8
	c-0.5,0-0.9-0.4-0.9-0.9v-4.7c0.4-2-0.9-4-3-4.4c-2-0.4-4,0.9-4.4,3c-0.1,0.4-0.1,0.9,0,1.3v4.8c0,0.5-0.5,0.9-1,0.9H7
	c-0.5,0-0.9-0.4-0.9-0.9v-15L8,40.6v15.5h6.1v-3.8c0-3.1,2.5-5.6,5.6-5.6s5.6,2.5,5.6,5.6l0,0v3.8h6.1L31.5,40.6z"/>
</svg>
